<svg width="22" height="29" viewBox="0 0 22 29" fill="none" xmlns="http://www.w3.org/2000/svg">
<path d="M19.0007 10.2681H17.6673V7.60148C17.6673 3.92148 14.6806 0.934814 11.0007 0.934814C7.32065 0.934814 4.33398 3.92148 4.33398 7.60148V10.2681H3.00065C1.53398 10.2681 0.333984 11.4681 0.333984 12.9348V26.2681C0.333984 27.7348 1.53398 28.9348 3.00065 28.9348H19.0007C20.4673 28.9348 21.6673 27.7348 21.6673 26.2681V12.9348C21.6673 11.4681 20.4673 10.2681 19.0007 10.2681ZM7.00065 7.60148C7.00065 5.38815 8.78732 3.60148 11.0007 3.60148C13.214 3.60148 15.0007 5.38815 15.0007 7.60148V10.2681H7.00065V7.60148ZM19.0007 26.2681H3.00065V12.9348H19.0007V26.2681ZM11.0007 22.2681C12.4673 22.2681 13.6673 21.0681 13.6673 19.6015C13.6673 18.1348 12.4673 16.9348 11.0007 16.9348C9.53398 16.9348 8.33398 18.1348 8.33398 19.6015C8.33398 21.0681 9.53398 22.2681 11.0007 22.2681Z" fill="white"/>
</svg>
