<svg width="25" height="24" viewBox="0 0 25 24" fill="none" xmlns="http://www.w3.org/2000/svg">
<path d="M12.6816 3C14.3316 3 15.6816 4.35 15.6816 6C15.6816 7.65 14.3316 9 12.6816 9C11.0316 9 9.68164 7.65 9.68164 6C9.68164 4.35 11.0316 3 12.6816 3ZM12.6816 16.5C16.7316 16.5 21.3816 18.435 21.6816 19.5V21H3.68164V19.515C3.98164 18.435 8.63164 16.5 12.6816 16.5ZM12.6816 0C9.36664 0 6.68164 2.685 6.68164 6C6.68164 9.315 9.36664 12 12.6816 12C15.9966 12 18.6816 9.315 18.6816 6C18.6816 2.685 15.9966 0 12.6816 0ZM12.6816 13.5C8.67664 13.5 0.681641 15.51 0.681641 19.5V24H24.6816V19.5C24.6816 15.51 16.6866 13.5 12.6816 13.5Z" fill="#2758FF"/>
</svg>
