<svg width="36" height="41" viewBox="0 0 36 41" fill="none" xmlns="http://www.w3.org/2000/svg">
<path fill-rule="evenodd" clip-rule="evenodd" d="M8.35735 40.5997C7.59816 40.4441 6.87869 40.1969 6.30047 39.6529C5.14733 38.5659 4.77546 37.2374 5.25989 35.7432C5.71342 34.3429 6.73303 33.5087 8.19735 33.2659C8.47763 33.2196 8.63212 33.1766 8.62991 32.8312C8.61557 29.8628 8.62218 26.8945 8.62108 23.9261C8.62108 23.8246 8.60894 23.7219 8.59901 23.5774C6.38654 23.9228 4.81298 25.0903 3.77461 27.0556C3.94233 27.1681 4.10675 27.2674 4.26014 27.3822C4.93988 27.8865 5.2952 28.5684 5.34375 29.4093C5.36913 29.8584 5.12085 30.174 4.72911 30.2148C4.31972 30.2568 4.04716 30.0283 3.95557 29.5693C3.92247 29.4038 3.90592 29.2327 3.84854 29.076C3.66536 28.5739 3.15776 28.2429 2.6325 28.2639C2.06973 28.2859 1.59854 28.671 1.45289 29.2338C1.42419 29.3464 1.41868 29.4645 1.39992 29.5803C1.3315 29.9996 1.0446 30.2446 0.651761 30.2192C0.272164 30.195 0.011742 29.8981 0.00070724 29.4788C-0.0268797 28.3974 0.755487 27.3083 1.8391 26.9805C2.13263 26.8922 2.29705 26.7378 2.42615 26.4784C3.20521 24.9225 4.30979 23.6811 5.90211 22.9153C7.18104 22.2996 8.54053 22.0447 9.94746 22.0436C15.1945 22.038 20.4415 22.038 25.6875 22.0447C27.7598 22.048 29.6788 22.5423 31.3152 23.8908C32.1759 24.5992 32.7895 25.4974 33.2938 26.4762C33.4372 26.7554 33.6127 26.9264 33.9393 27.018C34.9556 27.3038 35.7071 28.3003 35.7678 29.3607C35.7953 29.8374 35.5603 30.1707 35.163 30.2159C34.7261 30.2667 34.4325 30.0041 34.3663 29.5053C34.2659 28.7505 33.7771 28.2694 33.1051 28.265C32.4485 28.2606 31.9663 28.7152 31.8416 29.4556C31.8328 29.5064 31.8206 29.5571 31.8107 29.609C31.7202 30.0372 31.4432 30.259 31.0471 30.2181C30.6697 30.1795 30.4082 29.8727 30.4291 29.4523C30.4777 28.5022 30.9069 27.7662 31.7103 27.252C31.8063 27.1902 31.9067 27.1339 32.0203 27.0666C30.9853 25.0947 29.4007 23.9305 27.1882 23.5763C27.1882 26.7852 27.1882 29.9687 27.1882 33.1765C27.9529 33.235 28.679 33.3763 29.3378 33.7912C30.5483 34.5537 31.2435 36.0202 30.9875 37.4889C30.7249 38.9941 29.8288 39.9784 28.37 40.443C28.1847 40.5014 27.9971 40.5489 27.8095 40.6019C21.3254 40.5997 14.8414 40.5997 8.35735 40.5997ZM10.0909 23.4869C10.0909 26.7245 10.0909 29.9434 10.0909 33.1688C15.3137 33.1688 20.5122 33.1688 25.7261 33.1688C25.7261 29.9312 25.7261 26.7223 25.7261 23.4869C20.5055 23.4869 15.3071 23.4869 10.0909 23.4869ZM17.9797 39.206C19.2288 39.206 20.4791 39.206 21.7282 39.206C23.5898 39.206 25.4502 39.2137 27.3118 39.2027C28.5587 39.1949 29.5397 38.2559 29.5982 37.0465C29.6611 35.7631 28.6801 34.6795 27.3957 34.6618C25.7559 34.6387 24.1161 34.6508 22.4764 34.6497C17.9344 34.6486 13.3914 34.653 8.8495 34.6453C8.13224 34.6442 7.51098 34.8472 7.03207 35.3846C6.39426 36.0997 6.23426 36.9295 6.61275 37.8123C7.00449 38.7248 7.73278 39.1993 8.72702 39.2027C11.8112 39.2126 14.8955 39.206 17.9797 39.206Z" fill="white"/>
<path fill-rule="evenodd" clip-rule="evenodd" d="M18.2787 0.602051C19.0346 0.841506 19.6669 1.22883 19.9924 2.00016C20.4735 3.14116 19.9924 4.44105 18.8702 4.96741C18.6649 5.06341 18.5744 5.16604 18.5866 5.39887C18.6064 5.77185 18.5921 6.14814 18.5921 6.56635C18.7808 6.56635 18.9331 6.56525 19.0853 6.56635C20.4382 6.58291 21.7922 6.57629 23.1439 6.62153C24.883 6.68001 26.2635 7.71949 26.8439 9.3725C26.9223 9.5954 27.0271 9.70244 27.2665 9.7521C28.9549 10.0986 30.2217 11.5938 30.3011 13.3119C30.3828 15.0532 29.2385 16.6775 27.5457 17.1697C27.2202 17.2646 27.1054 17.4113 27.0525 17.7336C26.6729 20.0167 25.149 21.3607 22.8427 21.3806C19.5367 21.4092 16.2306 21.4203 12.9246 21.3717C10.5069 21.3353 8.96535 19.8842 8.67072 17.4985C8.63982 17.2458 8.50851 17.1917 8.30215 17.1355C6.60721 16.672 5.45849 15.1613 5.4629 13.4212C5.46842 11.6247 6.75508 10.0467 8.51071 9.6572C8.65085 9.6263 8.82631 9.47954 8.87486 9.34602C9.48177 7.69301 10.9207 6.60387 12.6918 6.54649C14.0182 6.50346 15.3468 6.52222 16.6742 6.51339C16.8276 6.51229 16.9821 6.51339 17.1818 6.51339C17.1818 6.06207 17.1907 5.64936 17.1741 5.23887C17.1708 5.16273 17.0792 5.0579 17.0031 5.02148C15.9813 4.52933 15.4858 3.71717 15.6293 2.59604C15.7639 1.54222 16.416 0.904404 17.4456 0.653914C17.4665 0.648397 17.482 0.620811 17.4997 0.603155C17.7579 0.602052 18.0183 0.602051 18.2787 0.602051ZM17.8947 8.00529C16.2295 8.00529 14.5622 7.96557 12.8992 8.01633C11.1712 8.06929 10.1295 9.04367 10.0677 10.7618C9.99048 12.9058 9.98827 15.0565 10.0655 17.1995C10.1295 18.9683 11.2098 19.9615 12.9886 19.978C16.2671 20.0078 19.5466 20.0067 22.825 19.9769C24.5763 19.9604 25.6643 18.8977 25.704 17.1498C25.7515 15.0433 25.7515 12.9334 25.7029 10.8269C25.6632 9.11208 24.6083 8.06708 22.8901 8.01742C21.2261 7.96777 19.5598 8.00639 17.8947 8.00529ZM8.58133 11.2374C7.58158 11.4746 6.85108 12.502 6.88749 13.5878C6.92281 14.6173 7.69966 15.6127 8.58133 15.7495C8.58133 14.2466 8.58133 12.7447 8.58133 11.2374ZM27.186 15.7462C28.1206 15.5718 28.8875 14.5434 28.8831 13.494C28.8787 12.4236 28.1239 11.4117 27.186 11.2418C27.186 12.7447 27.186 14.2433 27.186 15.7462ZM17.8693 3.81648C18.3471 3.82311 18.7378 3.44792 18.7521 2.97012C18.7664 2.47466 18.3824 2.0752 17.887 2.06968C17.3926 2.06416 17.0009 2.45479 17.0042 2.95136C17.0064 3.42475 17.3915 3.80986 17.8693 3.81648Z" fill="white"/>
<path fill-rule="evenodd" clip-rule="evenodd" d="M17.4228 27.5063C17.5608 27.5063 17.6976 27.5063 17.8355 27.5063C18.4601 27.5074 19.0847 27.5008 19.7081 27.5129C20.0458 27.5196 20.3172 27.663 20.4309 28.0029C20.5402 28.3273 20.4077 28.591 20.1716 28.8051C19.8141 29.1273 19.4488 29.4407 19.0869 29.7585C18.0408 30.6766 16.9969 31.5958 15.9497 32.5128C15.5436 32.8681 15.1419 32.8814 14.8539 32.5558C14.5659 32.2314 14.6233 31.8209 15.0194 31.4711C15.8184 30.7649 16.6217 30.0631 17.4228 29.359C17.5464 29.2509 17.6667 29.1395 17.873 28.9552C17.1525 28.9552 16.5356 28.9552 15.9199 28.9552C15.7511 28.9552 15.5822 28.9574 15.4123 28.9541C15.0614 28.9464 14.7623 28.8283 14.6376 28.4763C14.513 28.1254 14.6663 27.8473 14.9411 27.6211C15.8051 26.9115 16.6669 26.1987 17.5288 25.4869C18.0805 25.0312 18.6333 24.5777 19.184 24.1219C19.4278 23.92 19.6916 23.8019 20.0094 23.9266C20.5479 24.1374 20.6119 24.7752 20.1186 25.189C19.3716 25.8147 18.6102 26.4249 17.8543 27.0417C17.7042 27.1653 17.5541 27.29 17.4041 27.4136C17.4107 27.4434 17.4162 27.4743 17.4228 27.5063Z" fill="white"/>
<path fill-rule="evenodd" clip-rule="evenodd" d="M10.1021 38.8092C9.06368 38.8026 8.2129 37.9385 8.23276 36.909C8.25263 35.8651 9.10782 35.0375 10.1484 35.0529C11.1691 35.0684 12.0044 35.9181 11.9989 36.9355C11.9956 37.9739 11.1426 38.8158 10.1021 38.8092ZM10.5754 36.9531C10.5611 36.6629 10.4121 36.4786 10.1252 36.4709C9.85929 36.4632 9.68273 36.6221 9.66508 36.8936C9.64632 37.1805 9.7986 37.3703 10.0888 37.3901C10.3801 37.4089 10.5346 37.2334 10.5754 36.9531Z" fill="white"/>
<path fill-rule="evenodd" clip-rule="evenodd" d="M17.8649 38.8082C16.8232 38.7983 15.9967 37.9486 16.0099 36.9003C16.0232 35.863 16.8839 35.0332 17.9278 35.0531C18.9474 35.0718 19.7717 35.9204 19.7662 36.9433C19.7595 37.9828 18.9088 38.8182 17.8649 38.8082ZM17.8781 37.4002C18.1672 37.3704 18.3493 37.2181 18.346 36.9279C18.3427 36.6399 18.1617 36.4644 17.8737 36.4711C17.6067 36.4766 17.4356 36.6432 17.4279 36.9158C17.4191 37.2093 17.5967 37.3605 17.8781 37.4002Z" fill="white"/>
<path fill-rule="evenodd" clip-rule="evenodd" d="M25.6503 38.8086C24.6141 38.8108 23.7534 37.9545 23.7578 36.9261C23.7633 35.8921 24.6207 35.0458 25.6591 35.0513C26.6854 35.0568 27.5108 35.8833 27.5185 36.9162C27.5273 37.9645 26.6964 38.8064 25.6503 38.8086ZM26.106 36.9118C26.0718 36.6271 25.9085 36.4593 25.6205 36.4715C25.3512 36.4825 25.1846 36.6635 25.1857 36.9272C25.1868 37.2086 25.3579 37.3951 25.6503 37.3907C25.9405 37.3851 26.0906 37.2064 26.106 36.9118Z" fill="white"/>
<path fill-rule="evenodd" clip-rule="evenodd" d="M13.9582 15.1551C12.4497 15.1585 11.2006 13.9204 11.1895 12.4097C11.1785 10.9123 12.4342 9.65651 13.946 9.6543C15.4622 9.65209 16.7058 10.8858 16.7113 12.3987C16.7168 13.9093 15.4754 15.1529 13.9582 15.1551ZM13.9427 11.059C13.2056 11.0634 12.6053 11.6637 12.6053 12.3975C12.6053 13.1325 13.2045 13.7317 13.9427 13.735C14.6964 13.7383 15.3143 13.1214 15.3022 12.3777C15.2889 11.6461 14.6798 11.0557 13.9427 11.059Z" fill="white"/>
<path fill-rule="evenodd" clip-rule="evenodd" d="M21.8336 15.1561C20.323 15.1661 19.0705 13.9302 19.0606 12.4184C19.0507 10.9066 20.2866 9.66302 21.8061 9.6553C23.3211 9.64868 24.5603 10.8713 24.578 12.3919C24.5957 13.8916 23.3509 15.1462 21.8336 15.1561ZM21.8281 11.0589C21.0888 11.0545 20.483 11.6427 20.4709 12.3776C20.4576 13.1103 21.0524 13.7227 21.7873 13.7349C22.5542 13.747 23.1589 13.1588 23.16 12.3997C23.16 11.657 22.5708 11.0633 21.8281 11.0589Z" fill="white"/>
<path fill-rule="evenodd" clip-rule="evenodd" d="M17.8884 18.4142C16.6657 18.4142 15.4431 18.4153 14.2193 18.4131C14.0648 18.4131 13.9026 18.4131 13.7569 18.3689C13.438 18.2718 13.2615 18.0445 13.2637 17.7024C13.2659 17.3603 13.4513 17.1441 13.7669 17.0414C13.864 17.0105 13.9721 17.005 14.0747 17.005C16.6116 17.0028 19.1485 17.0017 21.6854 17.005C22.1467 17.0061 22.4358 17.2191 22.4965 17.5777C22.577 18.0544 22.2592 18.4075 21.713 18.4108C20.4385 18.4197 19.1629 18.4142 17.8884 18.4142Z" fill="white"/>
</svg>
