<svg width="117" height="31" viewBox="0 0 117 31" fill="none" xmlns="http://www.w3.org/2000/svg">
<g clip-path="url(#clip0_54_1396)">
<path d="M23.9833 4.42503L14.9528 1.9375L5.93283 4.42503C5.78673 4.46995 5.66621 4.56587 5.59777 4.69193C5.52919 4.81784 5.51829 4.96352 5.56749 5.09691C5.61654 5.23029 5.72177 5.34032 5.8597 5.40292C5.99778 5.4654 6.15736 5.47535 6.30346 5.43057L14.9788 3.04781L23.6805 5.43057C23.8206 5.45185 23.9643 5.4249 24.0841 5.3551C24.2037 5.2853 24.2907 5.17735 24.3284 5.0524C24.366 4.92732 24.3516 4.79407 24.2878 4.6781C24.2242 4.56228 24.1156 4.47216 23.9833 4.42503Z" fill="white"/>
<path fill-rule="evenodd" clip-rule="evenodd" d="M27.8101 5.59868C27.8982 5.6783 27.9567 5.78127 27.9771 5.89295C28.4641 8.91248 28.2992 11.9901 27.4917 14.9518C26.2075 19.6075 22.9556 25.0163 15.2458 28.452L14.9901 28.5617L14.7396 28.452C7.01934 25.0163 3.77774 19.6075 2.49365 14.9471C1.67559 11.9888 1.49828 8.91317 1.97166 5.89295C1.99356 5.77657 2.05637 5.67001 2.15054 5.58915C2.24471 5.50829 2.36515 5.4577 2.49365 5.44499C2.6107 5.43696 2.72778 5.46005 2.83065 5.51174C2.9335 5.5633 3.01773 5.64112 3.07305 5.73566L8.29294 15.0519H21.6506L26.8705 5.73566C26.9271 5.6349 27.0171 5.55307 27.1276 5.50165C27.2381 5.45024 27.3635 5.43199 27.486 5.44941C27.6085 5.46682 27.7219 5.51907 27.8101 5.59868ZM2.88513 7.73237C2.72947 10.0715 2.96178 12.4186 3.57417 14.6945C4.2405 17.2271 5.47594 19.6055 7.20209 21.6792C8.92824 23.7529 11.1074 25.4768 13.6015 26.7413L7.43692 15.8334L2.88513 7.73237ZM8.88796 16.124L14.9534 26.8414L21.0712 16.124H8.88796ZM22.7074 21.672C24.434 19.6002 25.672 17.2245 26.3433 14.6945C26.9658 12.4138 27.2019 10.0593 27.0427 7.71329L22.4961 15.8143L16.3106 26.7318C18.8027 25.4664 20.9806 23.7436 22.7074 21.672Z" fill="white"/>
<path fill-rule="evenodd" clip-rule="evenodd" d="M37.0732 25.6112C37.2249 25.7531 37.4066 25.8653 37.6071 25.9409C37.8075 26.0164 38.0227 26.0538 38.2394 26.0506H46.4353V25.0325H38.2394C38.1688 25.0348 38.0984 25.0239 38.0326 25.0003C37.9668 24.9765 37.9071 24.9406 37.857 24.8948C37.8071 24.8489 37.768 24.7941 37.7421 24.7338C37.7163 24.6736 37.7043 24.6089 37.7069 24.5441V18.5083C37.7057 18.4452 37.7185 18.3827 37.7447 18.3243C37.7707 18.266 37.8096 18.2131 37.8587 18.1689C37.9084 18.1217 37.9679 18.0843 38.0338 18.0586C38.0997 18.033 38.1706 18.0199 38.2421 18.02H46.4353V16.9994H38.2394C38.0232 16.9984 37.809 17.0367 37.6092 17.112C37.4092 17.1874 37.2275 17.2982 37.0745 17.4383C36.9215 17.5783 36.8003 17.7448 36.7178 17.9281C36.6353 18.1113 36.5932 18.3076 36.5939 18.5059V24.5441C36.5909 24.7425 36.6317 24.9394 36.7141 25.1227C36.7964 25.3062 36.9186 25.4724 37.0732 25.6112ZM52.7833 17.0018V26.0506H61.7914V25.0325H53.8963V22.0414H60.2389V21.011H53.8963V18.02H61.7914V16.9994L52.7833 17.0018ZM68.1287 26.0506V17.0165H76.3538C76.7892 17.0197 77.2057 17.1797 77.5136 17.462C77.8213 17.7443 77.9958 18.1263 77.9993 18.5254V21.1747C78.0014 21.3732 77.96 21.5701 77.8777 21.7539C77.7953 21.9375 77.6737 22.1042 77.5201 22.2441C77.3683 22.3861 77.1867 22.4983 76.9861 22.5739C76.7857 22.6494 76.5705 22.6867 76.3538 22.6836H74.8467L77.9434 26.0336H76.4764L73.3954 22.6836L69.2416 22.669V26.0506H68.1287ZM69.7741 21.6556H76.3538C76.4224 21.6564 76.4907 21.6443 76.5542 21.6204C76.6178 21.5965 76.6755 21.5612 76.7239 21.5164C76.7731 21.4725 76.812 21.4196 76.8382 21.3612C76.8642 21.3029 76.877 21.2401 76.8757 21.1771V18.5229C76.877 18.46 76.8642 18.3973 76.8382 18.3389C76.812 18.2805 76.7731 18.2277 76.7239 18.1836C76.6777 18.1353 76.6209 18.0968 76.5569 18.0707C76.493 18.0446 76.4237 18.0315 76.3538 18.0323H69.7741C69.7024 18.0325 69.6315 18.046 69.5656 18.072C69.4997 18.098 69.4402 18.136 69.3907 18.1836C69.3423 18.2281 69.3042 18.2811 69.2787 18.3394C69.253 18.3976 69.2404 18.4602 69.2416 18.5229V21.1747C69.2404 21.2376 69.253 21.2999 69.2787 21.3582C69.3042 21.4166 69.3423 21.4695 69.3907 21.514C69.495 21.6029 69.6319 21.6526 69.7741 21.6533V21.6556ZM88.2371 18.02V26.0506H89.3509V18.02H93.7253V16.9994H83.8551V18.0175L88.2371 18.02ZM99.5834 16.9994H100.707V26.0483H99.5834V16.9994ZM107.476 16.9994V26.0483H108.6V22.0414H111.778L115.453 26.0506H116.891L112.756 21.5263L116.891 17.014H115.466L111.792 21.0233H108.602V16.9994H107.476Z" fill="white"/>
<path d="M42.2287 10.8835L39.7998 5.685H39.0816L36.6484 10.8835H37.4425L37.9875 9.7062H40.8897L41.4346 10.8835H42.2287ZM39.4112 6.63679L39.4365 6.54887H39.4449L39.4661 6.63679L40.6235 9.13283H38.2536L39.4112 6.63679Z" fill="white"/>
<path d="M46.646 10.9905C48.0357 10.9905 49.0242 10.1228 49.0242 8.86905V5.68115H48.2765V8.82701C48.2765 9.67559 47.6682 10.3636 46.646 10.3636C45.5983 10.3636 45.0111 9.66412 45.0111 8.81936V5.68115H44.2676V8.86905C44.2676 10.1572 45.3068 10.9905 46.646 10.9905Z" fill="white"/>
<path d="M54.3212 10.8835C56.1335 10.8835 57.3374 9.8438 57.3374 8.28043C57.3374 6.72469 56.125 5.685 54.3085 5.685H52.209V10.8835H54.3212ZM52.944 6.28894H54.2874C55.7153 6.28894 56.5812 7.08783 56.5812 8.29572C56.5812 9.49978 55.711 10.2719 54.3043 10.2719H52.944V6.28894Z" fill="white"/>
<path d="M60.947 10.8835V5.685H60.1992V10.8835H60.947Z" fill="white"/>
<path d="M66.2341 10.8835V6.29276H68.0548V5.685H63.6699V6.29276H65.4864V10.8835H66.2341Z" fill="white"/>
<path d="M74.6401 10.8835V10.2719H71.5309V8.52888H74.2008V7.94788H71.5309V6.3004H74.6021V5.685H70.7832V10.8835H74.6401Z" fill="white"/>
<path d="M79.5673 10.8835C81.3796 10.8835 82.5835 9.8438 82.5835 8.28043C82.5835 6.72469 81.3712 5.685 79.5547 5.685H77.4551V10.8835H79.5673ZM78.1902 6.28894H79.5336C80.9614 6.28894 81.8274 7.08783 81.8274 8.29572C81.8274 9.49978 80.9572 10.2719 79.5505 10.2719H78.1902V6.28894Z" fill="white"/>
<path d="M92.0097 10.8835C92.9052 10.8835 93.7417 10.356 93.7417 9.41568C93.7417 8.80792 93.2559 8.29572 92.6476 8.13517C93.0743 7.96698 93.408 7.53122 93.408 7.05343C93.408 6.23924 92.7236 5.685 91.7689 5.685H89.3145V10.8835H92.0097ZM90.0707 6.27365H91.7393C92.2462 6.27365 92.6519 6.64061 92.6519 7.10311C92.6519 7.57327 92.2462 7.94023 91.7351 7.94023H90.0707V6.27365ZM90.0707 8.4639H91.959C92.5293 8.4639 92.9728 8.86907 92.9728 9.36599C92.9728 9.89349 92.5251 10.2872 91.9506 10.2872H90.0707V8.4639Z" fill="white"/>
<path d="M98.7314 10.8835L98.7272 8.8882L101.051 5.685H100.163L98.3597 8.28425H98.3555L96.5432 5.685H95.6602L97.9837 8.89201V10.8835H98.7314Z" fill="white"/>
<g filter="url(#filter0_f_54_1396)">
<path fill-rule="evenodd" clip-rule="evenodd" d="M107.715 4.83477C109.466 4.3455 111.351 3.69314 112.025 3C112.698 3.69314 114.584 4.3455 116.335 4.83477C116.47 6.62876 115.796 10.5837 112.025 12.0515C108.254 10.5837 107.58 6.62876 107.715 4.83477ZM111.206 8.20768L113.855 5.81025C114.031 5.65123 114.32 5.65123 114.495 5.81025C114.671 5.96926 114.671 6.22613 114.495 6.38514L111.526 9.07205C111.35 9.23107 111.066 9.23107 110.89 9.07205L109.723 8.01604C109.548 7.85702 109.548 7.60017 109.723 7.44115C109.899 7.28214 110.183 7.28214 110.359 7.44115L111.206 8.20768Z" fill="#26E2B3"/>
</g>
<path fill-rule="evenodd" clip-rule="evenodd" d="M107.715 4.88988C109.466 4.40061 111.351 3.74825 112.025 3.05511C112.698 3.74825 114.584 4.40061 116.335 4.88988C116.47 6.68388 115.796 10.6388 112.025 12.1066C108.254 10.6388 107.58 6.68388 107.715 4.88988ZM111.206 8.26279L113.855 5.86536C114.031 5.70635 114.32 5.70635 114.495 5.86536C114.671 6.02437 114.671 6.28124 114.495 6.44026L111.526 9.12716C111.35 9.28618 111.066 9.28618 110.89 9.12716L109.723 8.07117C109.548 7.91215 109.548 7.65528 109.723 7.49626C109.899 7.33727 110.183 7.33727 110.359 7.49626L111.206 8.26279Z" fill="#26E2B3"/>
</g>
<defs>
<filter id="filter0_f_54_1396" x="103.699" y="-1" width="16.6523" height="17.0515" filterUnits="userSpaceOnUse" color-interpolation-filters="sRGB">
<feFlood flood-opacity="0" result="BackgroundImageFix"/>
<feBlend mode="normal" in="SourceGraphic" in2="BackgroundImageFix" result="shape"/>
<feGaussianBlur stdDeviation="2" result="effect1_foregroundBlur_54_1396"/>
</filter>
<clipPath id="clip0_54_1396">
<rect width="116" height="31" fill="white" transform="translate(0.890625)"/>
</clipPath>
</defs>
</svg>
