<svg width="692" height="775" viewBox="0 0 692 775" fill="none" xmlns="http://www.w3.org/2000/svg">
<g opacity="0.5">
<path d="M451.672 774.382C387.475 774.382 327.126 749.404 281.733 704.05C236.341 658.695 211.34 598.393 211.34 534.249C211.34 470.109 236.341 409.807 281.733 364.452C327.126 319.098 387.475 294.12 451.672 294.12C515.869 294.12 576.218 319.098 621.611 364.452C667.003 409.807 691.999 470.109 691.999 534.249C691.999 598.388 666.998 658.69 621.611 704.045C576.218 749.404 515.864 774.382 451.672 774.382ZM451.672 295.977C387.973 295.977 328.088 320.761 283.051 365.764C238.009 410.768 213.207 470.602 213.207 534.249C213.207 597.891 238.013 657.729 283.051 702.733C328.088 747.737 387.978 772.52 451.672 772.52C515.366 772.52 575.256 747.737 620.294 702.733C665.335 657.729 690.138 597.896 690.138 534.249C690.138 470.602 665.331 410.768 620.294 365.764C575.252 320.765 515.366 295.977 451.672 295.977Z" fill="url(#paint0_linear_54_1896)"/>
<path d="M451.672 768.374C389.081 768.374 330.238 744.022 285.983 699.8C241.727 655.578 217.352 596.787 217.352 534.248C217.352 471.71 241.723 412.919 285.983 368.697C330.238 324.475 389.081 300.123 451.672 300.123C514.262 300.123 573.105 324.475 617.36 368.697C661.616 412.919 685.992 471.71 685.992 534.248C685.992 596.787 661.616 655.578 617.36 699.8C573.1 744.022 514.257 768.374 451.672 768.374ZM451.672 301.984C389.578 301.984 331.205 326.142 287.3 370.014C243.395 413.886 219.213 472.212 219.213 534.248C219.213 596.284 243.39 654.616 287.295 698.487C331.2 742.354 389.574 766.517 451.667 766.517C513.76 766.517 572.134 742.359 616.039 698.487C659.943 654.621 684.125 596.294 684.125 534.253C684.125 472.212 659.943 413.886 616.039 370.019C572.138 326.147 513.76 301.984 451.672 301.984Z" fill="url(#paint1_linear_54_1896)"/>
<path d="M451.671 762.367C390.687 762.367 333.355 738.64 290.232 695.555C247.109 652.47 223.363 595.185 223.363 534.253C223.363 473.321 247.114 416.037 290.232 372.951C333.355 329.866 390.687 306.14 451.671 306.14C512.655 306.14 569.987 329.866 613.11 372.951C656.233 416.037 679.979 473.321 679.979 534.253C679.979 595.185 656.233 652.47 613.11 695.555C569.982 738.64 512.651 762.367 451.671 762.367ZM451.671 307.992C391.184 307.992 334.322 331.525 291.549 374.259C248.781 416.994 225.225 473.814 225.225 534.248C225.225 594.683 248.781 651.503 291.549 694.238C334.317 736.972 391.184 760.505 451.671 760.505C512.158 760.505 569.021 736.968 611.793 694.238C654.561 651.503 678.117 594.683 678.117 534.248C678.117 473.814 654.561 416.994 611.793 374.259C569.021 331.529 512.153 307.992 451.671 307.992Z" fill="url(#paint2_linear_54_1896)"/>
<path d="M451.672 756.36C392.293 756.36 336.473 733.258 294.487 691.306C252.501 649.353 229.381 593.58 229.381 534.249C229.381 474.918 252.501 419.145 294.487 377.192C336.473 335.239 392.298 312.138 451.672 312.138C511.05 312.138 566.87 335.239 608.856 377.192C650.842 419.145 673.962 474.918 673.962 534.249C673.962 593.58 650.837 649.353 608.856 691.306C566.87 733.258 511.045 756.36 451.672 756.36ZM451.672 314C392.791 314 337.435 336.912 295.799 378.509C254.164 420.107 231.238 475.42 231.238 534.249C231.238 593.078 254.169 648.391 295.799 689.989C337.435 731.586 392.791 754.498 451.672 754.498C510.552 754.498 565.908 731.586 607.544 689.989C649.179 648.391 672.105 593.078 672.105 534.249C672.105 475.42 649.174 420.107 607.544 378.509C565.904 336.912 510.548 314 451.672 314Z" fill="url(#paint3_linear_54_1896)"/>
<path d="M451.672 750.352C393.9 750.352 339.586 727.871 298.737 687.056C257.888 646.24 235.389 591.974 235.389 534.249C235.389 476.524 257.884 422.258 298.737 381.442C339.586 340.626 393.9 318.146 451.672 318.146C509.444 318.146 563.758 340.626 604.607 381.442C645.456 422.258 667.955 476.524 667.955 534.249C667.955 591.974 645.456 646.24 604.607 687.056C563.753 727.876 509.439 750.352 451.672 750.352ZM451.672 320.007C394.397 320.007 340.553 342.294 300.054 382.759C259.556 423.224 237.251 477.026 237.251 534.254C237.251 591.481 259.556 645.283 300.054 685.748C340.553 726.213 394.397 748.5 451.672 748.5C508.947 748.5 562.791 726.213 603.29 685.748C643.788 645.283 666.093 591.481 666.093 534.254C666.093 477.026 643.788 423.224 603.29 382.759C562.791 342.294 508.942 320.007 451.672 320.007Z" fill="url(#paint4_linear_54_1896)"/>
<path d="M451.671 744.344C395.505 744.344 342.703 722.489 302.986 682.81C263.27 643.127 241.4 590.367 241.4 534.248C241.4 478.129 263.275 425.37 302.986 385.686C342.703 346.003 395.505 324.152 451.671 324.152C507.838 324.152 560.64 346.008 600.357 385.686C640.073 425.37 661.943 478.129 661.943 534.248C661.943 590.367 640.068 643.127 600.357 682.81C560.64 722.493 507.833 744.344 451.671 744.344ZM451.671 326.014C396.003 326.014 343.665 347.675 304.304 387.003C264.942 426.336 243.262 478.627 243.262 534.248C243.262 589.869 264.942 642.165 304.304 681.493C343.665 720.826 396.003 742.482 451.671 742.482C507.34 742.482 559.678 720.821 599.039 681.493C638.401 642.16 660.081 589.869 660.081 534.248C660.081 478.627 638.401 426.332 599.039 387.003C559.673 347.675 507.335 326.014 451.671 326.014Z" fill="url(#paint5_linear_54_1896)"/>
<path d="M451.67 738.336C397.11 738.336 345.819 717.106 307.24 678.56C268.66 640.014 247.416 588.761 247.416 534.248C247.416 479.735 268.665 428.482 307.24 389.936C345.819 351.39 397.11 330.16 451.67 330.16C506.23 330.16 557.521 351.39 596.101 389.936C634.68 428.482 655.924 479.735 655.924 534.248C655.924 588.761 634.68 640.014 596.101 678.56C557.521 717.111 506.225 738.336 451.67 738.336ZM451.67 332.022C397.608 332.022 346.781 353.057 308.552 391.253C270.323 429.449 249.273 480.233 249.273 534.253C249.273 588.273 270.328 639.052 308.552 677.248C346.781 715.444 397.608 736.479 451.67 736.479C505.733 736.479 556.559 715.444 594.788 677.248C633.017 639.052 654.067 588.268 654.067 534.253C654.067 480.238 633.013 429.454 594.788 391.253C556.555 353.057 505.728 332.022 451.67 332.022Z" fill="url(#paint6_linear_54_1896)"/>
<path d="M451.671 732.33C342.356 732.33 253.424 643.473 253.424 534.249C253.424 425.025 342.356 336.168 451.671 336.168C560.985 336.168 649.917 425.025 649.917 534.249C649.917 643.473 560.98 732.33 451.671 732.33ZM451.671 338.03C343.384 338.03 255.286 426.053 255.286 534.254C255.286 642.455 343.384 730.477 451.671 730.477C559.957 730.477 648.055 642.455 648.055 534.254C648.055 426.053 559.957 338.03 451.671 338.03Z" fill="url(#paint7_linear_54_1896)"/>
<path d="M451.672 726.322C345.674 726.322 259.438 640.157 259.438 534.249C259.438 428.341 345.674 342.175 451.672 342.175C557.67 342.175 643.906 428.341 643.906 534.249C643.902 640.161 557.67 726.322 451.672 726.322ZM451.672 344.037C346.697 344.037 261.299 429.369 261.299 534.253C261.299 639.138 346.702 724.47 451.672 724.47C556.642 724.47 642.045 639.138 642.045 534.253C642.045 429.369 556.642 344.037 451.672 344.037Z" fill="url(#paint8_linear_54_1896)"/>
<path d="M451.671 720.319C348.99 720.319 265.449 636.849 265.449 534.253C265.449 431.657 348.99 348.187 451.671 348.187C554.353 348.187 637.894 431.657 637.894 534.253C637.894 636.849 554.353 720.319 451.671 720.319ZM451.671 350.044C350.013 350.044 267.311 432.68 267.311 534.253C267.311 635.826 350.013 718.462 451.671 718.462C553.33 718.462 636.032 635.826 636.032 534.253C636.032 432.68 553.325 350.044 451.671 350.044Z" fill="url(#paint9_linear_54_1896)"/>
<path d="M451.671 714.312C352.301 714.312 271.461 633.538 271.461 534.253C271.461 434.969 352.301 354.195 451.671 354.195C551.041 354.195 631.881 434.969 631.881 534.253C631.881 633.538 551.036 714.312 451.671 714.312ZM451.671 356.052C353.329 356.052 273.323 435.992 273.323 534.253C273.323 632.514 353.329 712.455 451.671 712.455C550.013 712.455 630.019 632.514 630.019 534.253C630.019 435.992 550.013 356.052 451.671 356.052Z" fill="url(#paint10_linear_54_1896)"/>
<path d="M451.672 708.304C355.619 708.304 277.475 630.226 277.475 534.253C277.475 438.28 355.619 360.202 451.672 360.202C547.726 360.202 625.87 438.28 625.87 534.253C625.87 630.226 547.721 708.304 451.672 708.304ZM451.672 362.059C356.647 362.059 279.337 439.304 279.337 534.253C279.337 629.202 356.647 706.447 451.672 706.447C546.698 706.447 624.008 629.202 624.008 534.253C624.008 439.304 546.698 362.059 451.672 362.059Z" fill="url(#paint11_linear_54_1896)"/>
<path d="M451.672 702.296C358.935 702.296 283.486 626.914 283.486 534.253C283.486 441.592 358.935 366.209 451.672 366.209C544.409 366.209 619.858 441.597 619.858 534.253C619.858 626.909 544.409 702.296 451.672 702.296ZM451.672 368.062C359.958 368.062 285.348 442.611 285.348 534.248C285.348 625.886 359.963 700.435 451.672 700.435C543.385 700.435 617.996 625.886 617.996 534.248C617.996 442.611 543.381 368.062 451.672 368.062Z" fill="url(#paint12_linear_54_1896)"/>
<path d="M451.671 696.29C362.251 696.29 289.498 623.598 289.498 534.254C289.498 444.904 362.246 372.218 451.671 372.218C541.097 372.218 613.845 444.909 613.845 534.254C613.84 623.598 541.092 696.29 451.671 696.29ZM451.671 374.07C363.274 374.07 291.36 445.928 291.36 534.249C291.36 622.57 363.274 694.428 451.671 694.428C540.068 694.428 611.983 622.57 611.983 534.249C611.983 445.928 540.064 374.07 451.671 374.07Z" fill="url(#paint13_linear_54_1896)"/>
<path d="M451.671 690.282C365.562 690.282 295.51 620.287 295.51 534.254C295.51 448.221 365.562 378.225 451.671 378.225C537.78 378.225 607.832 448.221 607.832 534.254C607.832 620.287 537.775 690.282 451.671 690.282ZM451.671 380.078C366.59 380.078 297.372 449.239 297.372 534.249C297.372 619.258 366.59 688.42 451.671 688.42C536.752 688.42 605.97 619.258 605.97 534.249C605.97 449.239 536.752 380.078 451.671 380.078Z" fill="url(#paint14_linear_54_1896)"/>
<path d="M451.67 684.275C368.878 684.275 301.521 616.975 301.521 534.249C301.521 451.523 368.878 384.223 451.67 384.223C534.463 384.223 601.819 451.523 601.819 534.249C601.819 616.975 534.463 684.275 451.67 684.275ZM451.67 386.085C369.906 386.085 303.383 452.551 303.383 534.249C303.383 615.947 369.906 682.413 451.67 682.413C533.439 682.413 599.958 615.947 599.958 534.249C599.958 452.551 533.435 386.085 451.67 386.085Z" fill="url(#paint15_linear_54_1896)"/>
<path d="M451.672 678.267C372.196 678.267 307.535 613.663 307.535 534.249C307.535 454.835 372.196 390.23 451.672 390.23C531.148 390.23 595.809 454.835 595.809 534.249C595.809 613.663 531.148 678.267 451.672 678.267ZM451.672 392.092C373.219 392.092 309.397 455.863 309.397 534.249C309.397 612.635 373.224 676.405 451.672 676.405C530.124 676.405 593.947 612.635 593.947 534.249C593.947 455.863 530.12 392.092 451.672 392.092Z" fill="url(#paint16_linear_54_1896)"/>
<path d="M451.671 672.259C375.507 672.259 313.547 610.346 313.547 534.248C313.547 458.15 375.507 396.237 451.671 396.237C527.836 396.237 589.796 458.15 589.796 534.248C589.796 610.351 527.831 672.259 451.671 672.259ZM451.671 398.099C376.535 398.099 315.409 459.178 315.409 534.248C315.409 609.323 376.535 670.397 451.671 670.397C526.807 670.397 587.934 609.318 587.934 534.248C587.934 459.178 526.807 398.099 451.671 398.099Z" fill="url(#paint17_linear_54_1896)"/>
<path d="M451.671 666.252C378.823 666.252 319.559 607.035 319.559 534.249C319.559 461.462 378.823 402.245 451.671 402.245C524.519 402.245 583.783 461.462 583.783 534.249C583.783 607.035 524.514 666.252 451.671 666.252ZM451.671 404.107C379.851 404.107 321.421 462.49 321.421 534.249C321.421 606.011 379.851 664.39 451.671 664.39C523.491 664.39 581.921 606.007 581.921 534.249C581.921 462.49 523.491 404.107 451.671 404.107Z" fill="url(#paint18_linear_54_1896)"/>
<path d="M451.672 660.244C382.141 660.244 325.572 603.722 325.572 534.248C325.572 464.773 382.141 408.252 451.672 408.252C521.204 408.252 577.773 464.773 577.773 534.248C577.773 603.722 521.204 660.244 451.672 660.244ZM451.672 410.114C383.164 410.114 327.434 465.801 327.434 534.253C327.434 602.704 383.169 658.387 451.672 658.387C520.18 658.387 575.911 602.699 575.911 534.253C575.911 465.801 520.176 410.114 451.672 410.114Z" fill="url(#paint19_linear_54_1896)"/>
<path d="M451.67 654.237C385.455 654.237 331.582 600.411 331.582 534.249C331.582 468.086 385.455 414.26 451.67 414.26C517.885 414.26 571.758 468.086 571.758 534.249C571.758 600.411 517.885 654.237 451.67 654.237ZM451.67 416.122C386.478 416.122 333.444 469.114 333.444 534.253C333.444 599.388 386.478 652.385 451.67 652.385C516.861 652.385 569.896 599.393 569.896 534.253C569.896 469.114 516.857 416.122 451.67 416.122Z" fill="url(#paint20_linear_54_1896)"/>
<path d="M451.671 648.23C388.768 648.23 337.596 597.1 337.596 534.249C337.596 471.398 388.768 420.268 451.671 420.268C514.575 420.268 565.747 471.398 565.747 534.249C565.747 597.1 514.57 648.23 451.671 648.23ZM451.671 422.13C389.796 422.13 339.458 472.426 339.458 534.254C339.458 596.081 389.796 646.378 451.671 646.378C513.547 646.378 563.885 596.081 563.885 534.254C563.885 472.426 513.547 422.13 451.671 422.13Z" fill="url(#paint21_linear_54_1896)"/>
<path d="M451.671 642.227C392.084 642.227 343.607 593.788 343.607 534.253C343.607 474.719 392.084 426.28 451.671 426.28C511.258 426.28 559.734 474.719 559.734 534.253C559.734 593.788 511.258 642.227 451.671 642.227ZM451.671 428.137C393.112 428.137 345.469 475.742 345.469 534.253C345.469 592.765 393.112 640.37 451.671 640.37C510.23 640.37 557.872 592.765 557.872 534.253C557.872 475.737 510.23 428.137 451.671 428.137Z" fill="url(#paint22_linear_54_1896)"/>
<path d="M451.67 636.219C395.4 636.219 349.619 590.476 349.619 534.253C349.619 478.03 395.4 432.287 451.67 432.287C507.941 432.287 553.722 478.03 553.722 534.253C553.722 590.476 507.941 636.219 451.67 636.219ZM451.67 434.144C396.423 434.144 351.481 479.054 351.481 534.253C351.481 589.453 396.428 634.362 451.67 634.362C506.917 634.362 551.86 589.453 551.86 534.253C551.86 479.054 506.913 434.144 451.67 434.144Z" fill="url(#paint23_linear_54_1896)"/>
<path d="M451.672 630.212C398.713 630.212 355.633 587.164 355.633 534.253C355.633 481.342 398.718 438.294 451.672 438.294C504.631 438.294 547.711 481.342 547.711 534.253C547.711 587.164 504.626 630.212 451.672 630.212ZM451.672 440.152C399.741 440.152 357.495 482.365 357.495 534.253C357.495 586.141 399.741 628.354 451.672 628.354C503.602 628.354 545.849 586.141 545.849 534.253C545.849 482.365 503.602 440.152 451.672 440.152Z" fill="url(#paint24_linear_54_1896)"/>
<path d="M451.671 624.204C402.029 624.204 361.645 583.853 361.645 534.253C361.645 484.654 402.029 444.302 451.671 444.302C501.314 444.302 541.698 484.654 541.698 534.253C541.698 583.853 501.309 624.204 451.671 624.204ZM451.671 446.155C403.057 446.155 363.506 485.672 363.506 534.249C363.506 582.825 403.057 622.342 451.671 622.342C500.285 622.342 539.836 582.825 539.836 534.249C539.836 485.672 500.285 446.155 451.671 446.155Z" fill="url(#paint25_linear_54_1896)"/>
<path d="M451.671 618.197C405.345 618.197 367.656 580.542 367.656 534.254C367.656 487.966 405.345 450.31 451.671 450.31C497.997 450.31 535.686 487.966 535.686 534.254C535.686 580.537 497.997 618.197 451.671 618.197ZM451.671 452.163C406.368 452.163 369.518 488.984 369.518 534.249C369.518 579.513 406.373 616.335 451.671 616.335C496.973 616.335 533.828 579.513 533.828 534.249C533.824 488.989 496.969 452.163 451.671 452.163Z" fill="url(#paint26_linear_54_1896)"/>
<path d="M451.672 612.189C408.663 612.189 373.67 577.225 373.67 534.253C373.67 491.282 408.663 456.312 451.672 456.312C494.682 456.312 529.675 491.277 529.675 534.253C529.675 577.23 494.682 612.189 451.672 612.189ZM451.672 458.17C409.686 458.17 375.532 492.3 375.532 534.249C375.532 576.197 409.691 610.327 451.672 610.327C493.658 610.327 527.818 576.197 527.818 534.249C527.818 492.3 493.654 458.17 451.672 458.17Z" fill="url(#paint27_linear_54_1896)"/>
<path d="M451.672 606.181C411.974 606.181 379.682 573.912 379.682 534.248C379.682 494.583 411.979 462.314 451.672 462.314C491.37 462.314 523.662 494.583 523.662 534.248C523.662 573.912 491.365 606.181 451.672 606.181ZM451.672 464.176C413.002 464.176 381.539 495.611 381.539 534.248C381.539 572.884 412.998 604.319 451.672 604.319C490.341 604.319 521.805 572.884 521.805 534.248C521.8 495.611 490.341 464.176 451.672 464.176Z" fill="url(#paint28_linear_54_1896)"/>
<path d="M451.671 600.175C415.29 600.175 385.693 570.602 385.693 534.249C385.693 497.896 415.29 468.323 451.671 468.323C488.053 468.323 517.649 497.896 517.649 534.249C517.649 570.602 488.048 600.175 451.671 600.175ZM451.671 470.185C416.318 470.185 387.555 498.924 387.555 534.249C387.555 569.574 416.318 598.313 451.671 598.313C487.024 598.313 515.792 569.574 515.792 534.249C515.787 498.924 487.024 470.185 451.671 470.185Z" fill="url(#paint29_linear_54_1896)"/>
<path d="M451.671 594.167C418.606 594.167 391.705 567.29 391.705 534.248C391.705 501.212 418.606 474.33 451.671 474.33C484.736 474.33 511.637 501.207 511.637 534.248C511.637 567.29 484.736 594.167 451.671 594.167ZM451.671 476.192C419.629 476.192 393.562 502.235 393.562 534.248C393.562 566.262 419.629 592.305 451.671 592.305C483.712 592.305 509.779 566.262 509.779 534.248C509.775 502.235 483.708 476.192 451.671 476.192Z" fill="url(#paint30_linear_54_1896)"/>
<path d="M451.67 588.159C421.917 588.159 397.717 563.973 397.717 534.248C397.717 504.524 421.922 480.337 451.67 480.337C481.423 480.337 505.624 504.524 505.624 534.248C505.624 563.973 481.419 588.159 451.67 588.159ZM451.67 482.199C422.945 482.199 399.574 505.547 399.574 534.248C399.574 562.95 422.945 586.297 451.67 586.297C480.395 586.297 503.767 562.95 503.767 534.248C503.762 505.547 480.395 482.199 451.67 482.199Z" fill="url(#paint31_linear_54_1896)"/>
<path d="M451.672 582.152C425.235 582.152 403.73 560.661 403.73 534.248C403.73 507.835 425.235 486.345 451.672 486.345C478.108 486.345 499.613 507.835 499.613 534.248C499.613 560.666 478.104 582.152 451.672 582.152ZM451.672 488.207C426.263 488.207 405.588 508.863 405.588 534.248C405.588 559.633 426.258 580.29 451.672 580.29C477.08 580.29 497.756 559.633 497.756 534.248C497.756 508.863 477.08 488.207 451.672 488.207Z" fill="url(#paint32_linear_54_1896)"/>
<path d="M451.671 576.145C428.551 576.145 409.742 557.35 409.742 534.249C409.742 511.148 428.551 492.353 451.671 492.353C474.792 492.353 493.6 511.148 493.6 534.249C493.6 557.35 474.792 576.145 451.671 576.145ZM451.671 494.215C429.574 494.215 411.599 512.176 411.599 534.254C411.599 556.332 429.574 574.293 451.671 574.293C473.768 574.293 491.743 556.332 491.743 534.254C491.739 512.176 473.764 494.215 451.671 494.215Z" fill="url(#paint33_linear_54_1896)"/>
<path d="M451.671 570.137C431.867 570.137 415.754 554.038 415.754 534.249C415.754 514.459 431.867 498.36 451.671 498.36C471.475 498.36 487.588 514.459 487.588 534.249C487.588 554.038 471.475 570.137 451.671 570.137ZM451.671 500.222C432.89 500.222 417.611 515.487 417.611 534.254C417.611 553.02 432.89 568.285 451.671 568.285C470.451 568.285 485.731 553.02 485.731 534.254C485.726 515.487 470.447 500.222 451.671 500.222Z" fill="url(#paint34_linear_54_1896)"/>
<path d="M451.67 564.134C435.178 564.134 421.766 550.731 421.766 534.253C421.766 517.775 435.183 504.372 451.67 504.372C468.162 504.372 481.575 517.775 481.575 534.253C481.575 550.731 468.158 564.134 451.67 564.134ZM451.67 506.229C436.206 506.229 423.623 518.799 423.623 534.253C423.623 549.708 436.206 562.277 451.67 562.277C467.134 562.277 479.718 549.708 479.718 534.253C479.718 518.799 467.134 506.229 451.67 506.229Z" fill="url(#paint35_linear_54_1896)"/>
<path d="M451.672 558.127C438.496 558.127 427.779 547.415 427.779 534.253C427.779 521.087 438.496 510.38 451.672 510.38C464.847 510.38 475.564 521.092 475.564 534.253C475.564 547.415 464.843 558.127 451.672 558.127ZM451.672 512.237C439.524 512.237 429.637 522.115 429.637 534.253C429.637 546.392 439.519 556.27 451.672 556.27C463.819 556.27 473.707 546.392 473.707 534.253C473.702 522.111 463.819 512.237 451.672 512.237Z" fill="url(#paint36_linear_54_1896)"/>
<circle opacity="0.5" cx="12.6659" cy="471.322" r="12.1112" fill="#2F2F2F"/>
<circle cx="638.174" cy="381.557" r="10.6112" fill="#2758FF" stroke="#2758FF" stroke-width="3"/>
<circle cx="366.027" cy="757.716" r="10.6112" fill="#2758FF" stroke="#2758FF" stroke-width="3"/>
<path d="M346.32 0.601593C410.517 0.601593 470.866 25.5791 516.259 70.9336C561.651 116.288 586.652 176.59 586.652 240.735C586.652 304.875 561.651 365.177 516.259 410.531C470.866 455.886 410.517 480.863 346.32 480.863C282.124 480.863 221.774 455.886 176.382 410.531C130.989 365.177 105.993 304.875 105.993 240.735C105.993 176.595 130.994 116.293 176.382 70.9384C221.774 25.5791 282.128 0.601593 346.32 0.601593ZM346.32 479.006C410.019 479.006 469.905 454.223 514.942 409.219C559.984 364.215 584.786 304.382 584.786 240.735C584.786 177.093 559.979 117.255 514.942 72.2507C469.905 27.2467 410.015 2.46353 346.32 2.46353C282.626 2.46353 222.736 27.2467 177.699 72.2507C132.657 117.255 107.855 177.088 107.855 240.735C107.855 304.382 132.662 364.215 177.699 409.219C222.741 454.218 282.626 479.006 346.32 479.006Z" fill="url(#paint37_linear_54_1896)"/>
<path d="M346.321 6.60934C408.911 6.60934 467.754 30.9614 512.009 75.1836C556.265 119.406 580.641 178.197 580.641 240.735C580.641 303.273 556.27 362.064 512.009 406.287C467.754 450.509 408.911 474.861 346.321 474.861C283.73 474.861 224.887 450.509 180.632 406.287C136.376 362.064 112.001 303.273 112.001 240.735C112.001 178.197 136.376 119.406 180.632 75.1836C224.892 30.9614 283.735 6.60934 346.321 6.60934ZM346.321 472.999C408.414 472.999 466.788 448.841 510.692 404.969C554.597 361.098 578.779 302.771 578.779 240.735C578.779 178.699 554.602 120.368 510.697 76.496C466.792 32.6291 408.418 8.46652 346.325 8.46652C284.232 8.46652 225.858 32.6244 181.954 76.496C138.049 120.363 113.867 178.689 113.867 240.73C113.867 302.771 138.049 361.098 181.954 404.965C225.854 448.836 284.232 472.999 346.321 472.999Z" fill="url(#paint38_linear_54_1896)"/>
<path d="M346.321 12.6162C407.306 12.6162 464.637 36.3429 507.76 79.428C550.883 122.513 574.629 179.797 574.629 240.73C574.629 301.662 550.879 358.946 507.76 402.031C464.637 445.117 407.306 468.843 346.321 468.843C285.337 468.843 228.005 445.117 184.882 402.031C141.759 358.946 118.013 301.662 118.013 240.73C118.013 179.797 141.759 122.513 184.882 79.428C228.01 36.3429 285.341 12.6162 346.321 12.6162ZM346.321 466.991C406.808 466.991 463.671 443.458 506.443 400.724C549.211 357.989 572.767 301.169 572.767 240.734C572.767 180.3 549.211 123.48 506.443 80.7451C463.675 38.0106 406.808 14.4781 346.321 14.4781C285.834 14.4781 228.972 38.0153 186.199 80.7451C143.431 123.48 119.875 180.3 119.875 240.734C119.875 301.169 143.431 357.989 186.199 400.724C228.972 443.454 285.839 466.991 346.321 466.991Z" fill="url(#paint39_linear_54_1896)"/>
<path d="M346.321 18.6237C405.699 18.6237 461.519 41.7249 503.505 83.6778C545.491 125.631 568.611 181.404 568.611 240.734C568.611 300.065 545.491 355.838 503.505 397.791C461.519 439.744 405.694 462.845 346.321 462.845C286.942 462.845 231.122 439.744 189.136 397.791C147.15 355.838 124.03 300.065 124.03 240.734C124.03 181.404 147.155 125.631 189.136 83.6778C231.122 41.7249 286.947 18.6237 346.321 18.6237ZM346.321 460.983C405.201 460.983 460.557 438.071 502.193 396.474C543.828 354.876 566.754 299.563 566.754 240.734C566.754 181.906 543.823 126.592 502.193 84.9949C460.557 43.3974 405.201 20.4856 346.321 20.4856C287.44 20.4856 232.084 43.3974 190.448 84.9949C148.813 126.592 125.887 181.906 125.887 240.734C125.887 299.563 148.818 354.876 190.448 396.474C232.089 438.071 287.444 460.983 346.321 460.983Z" fill="url(#paint40_linear_54_1896)"/>
<path d="M346.32 24.6313C404.092 24.6313 458.406 47.1119 499.255 87.9277C540.104 128.743 562.604 183.01 562.604 240.735C562.604 298.459 540.109 352.726 499.255 393.541C458.406 434.357 404.092 456.838 346.32 456.838C288.548 456.838 234.234 434.357 193.385 393.541C152.536 352.726 130.037 298.459 130.037 240.735C130.037 183.01 152.536 128.743 193.385 87.9277C234.239 47.1072 288.553 24.6313 346.32 24.6313ZM346.32 454.976C403.595 454.976 457.44 432.69 497.938 392.224C538.436 351.759 560.742 297.957 560.742 240.73C560.742 183.502 538.436 129.701 497.938 89.2353C457.44 48.7701 403.595 26.4837 346.32 26.4837C289.045 26.4837 235.201 48.7701 194.702 89.2353C154.204 129.701 131.899 183.502 131.899 240.73C131.899 297.957 154.204 351.759 194.702 392.224C235.201 432.69 289.05 454.976 346.32 454.976Z" fill="url(#paint41_linear_54_1896)"/>
<path d="M346.319 30.6394C402.485 30.6394 455.287 52.4947 495.004 92.1734C534.72 131.857 556.59 184.616 556.59 240.735C556.59 296.854 534.716 349.614 495.004 389.297C455.287 428.981 402.485 450.831 346.319 450.831C290.153 450.831 237.35 428.976 197.634 389.297C157.917 349.614 136.048 296.854 136.048 240.735C136.048 184.616 157.922 131.857 197.634 92.1734C237.35 52.49 290.157 30.6394 346.319 30.6394ZM346.319 448.969C401.987 448.969 454.325 427.308 493.687 387.98C533.048 348.647 554.728 296.356 554.728 240.735C554.728 185.114 533.048 132.819 493.687 93.4905C454.325 54.1576 401.987 32.5013 346.319 32.5013C290.65 32.5013 238.312 54.1624 198.951 93.4905C159.59 132.823 137.91 185.114 137.91 240.735C137.91 296.356 159.59 348.652 198.951 387.98C238.317 427.308 290.655 448.969 346.319 448.969Z" fill="url(#paint42_linear_54_1896)"/>
<path d="M346.32 36.647C400.88 36.647 452.171 57.8769 490.751 96.4233C529.33 134.97 550.574 186.223 550.574 240.735C550.574 295.248 529.325 346.501 490.751 385.047C452.171 423.594 400.88 444.824 346.32 444.824C291.76 444.824 240.469 423.594 201.889 385.047C163.31 346.501 142.066 295.248 142.066 240.735C142.066 186.223 163.31 134.97 201.889 96.4233C240.469 57.8722 291.765 36.647 346.32 36.647ZM346.32 442.962C400.383 442.962 451.209 421.926 489.438 383.73C527.667 345.535 548.717 294.751 548.717 240.731C548.717 186.711 527.662 135.931 489.438 97.7357C451.209 59.5399 400.383 38.5042 346.32 38.5042C292.258 38.5042 241.431 59.5399 203.202 97.7357C164.973 135.931 143.923 186.715 143.923 240.731C143.923 294.746 164.978 345.53 203.202 383.73C241.436 421.926 292.262 442.962 346.32 442.962Z" fill="url(#paint43_linear_54_1896)"/>
<path d="M346.32 42.6536C455.634 42.6536 544.566 131.51 544.566 240.735C544.566 349.959 455.634 438.815 346.32 438.815C237.005 438.815 148.073 349.959 148.073 240.735C148.073 131.51 237.01 42.6536 346.32 42.6536ZM346.32 436.953C454.606 436.953 542.704 348.931 542.704 240.73C542.704 132.529 454.606 44.5061 346.32 44.5061C238.034 44.5061 149.935 132.529 149.935 240.73C149.935 348.931 238.034 436.953 346.32 436.953Z" fill="url(#paint44_linear_54_1896)"/>
<path d="M346.32 48.6613C452.318 48.6613 538.555 134.827 538.555 240.735C538.555 346.643 452.318 432.808 346.32 432.808C240.322 432.808 154.086 346.643 154.086 240.735C154.09 134.822 240.322 48.6613 346.32 48.6613ZM346.32 430.946C451.295 430.946 536.693 345.614 536.693 240.73C536.693 135.845 451.29 50.5137 346.32 50.5137C241.35 50.5137 155.948 135.845 155.948 240.73C155.948 345.614 241.35 430.946 346.32 430.946Z" fill="url(#paint45_linear_54_1896)"/>
<path d="M346.321 54.6645C449.002 54.6645 532.543 138.134 532.543 240.73C532.543 343.327 449.002 426.796 346.321 426.796C243.639 426.796 160.098 343.327 160.098 240.73C160.098 138.134 243.639 54.6645 346.321 54.6645ZM346.321 424.939C447.979 424.939 530.681 342.303 530.681 240.73C530.681 139.158 447.979 56.5218 346.321 56.5218C244.663 56.5218 161.96 139.158 161.96 240.73C161.96 342.303 244.667 424.939 346.321 424.939Z" fill="url(#paint46_linear_54_1896)"/>
<path d="M346.321 60.6716C445.691 60.6716 526.531 141.446 526.531 240.73C526.531 340.015 445.691 420.789 346.321 420.789C246.951 420.789 166.111 340.015 166.111 240.73C166.111 141.446 246.956 60.6716 346.321 60.6716ZM346.321 418.931C444.663 418.931 524.669 338.991 524.669 240.73C524.669 142.469 444.663 62.5289 346.321 62.5289C247.98 62.5289 167.973 142.469 167.973 240.73C167.973 338.991 247.98 418.931 346.321 418.931Z" fill="url(#paint47_linear_54_1896)"/>
<path d="M346.32 66.6793C442.373 66.6793 520.518 144.758 520.518 240.73C520.518 336.703 442.373 414.781 346.32 414.781C250.266 414.781 172.122 336.703 172.122 240.73C172.122 144.758 250.271 66.6793 346.32 66.6793ZM346.32 412.924C441.345 412.924 518.656 335.68 518.656 240.73C518.656 145.781 441.345 68.5365 346.32 68.5365C251.295 68.5365 173.984 145.781 173.984 240.73C173.984 335.68 251.295 412.924 346.32 412.924Z" fill="url(#paint48_linear_54_1896)"/>
<path d="M346.32 72.6869C439.057 72.6869 514.506 148.069 514.506 240.73C514.506 333.391 439.057 408.774 346.32 408.774C253.583 408.774 178.135 333.387 178.135 240.73C178.135 148.074 253.583 72.6869 346.32 72.6869ZM346.32 406.921C438.034 406.921 512.644 332.373 512.644 240.735C512.644 149.097 438.029 74.5489 346.32 74.5489C254.607 74.5489 179.997 149.097 179.997 240.735C179.997 332.373 254.611 406.921 346.32 406.921Z" fill="url(#paint49_linear_54_1896)"/>
<path d="M346.321 78.6936C435.741 78.6936 508.494 151.385 508.494 240.73C508.494 330.079 435.746 402.766 346.321 402.766C256.896 402.766 184.147 330.074 184.147 240.73C184.152 151.385 256.9 78.6936 346.321 78.6936ZM346.321 400.913C434.718 400.913 506.632 329.056 506.632 240.734C506.632 152.413 434.718 80.5555 346.321 80.5555C257.924 80.5555 186.009 152.413 186.009 240.734C186.009 329.056 257.928 400.913 346.321 400.913Z" fill="url(#paint50_linear_54_1896)"/>
<path d="M346.321 84.7017C432.43 84.7017 502.482 154.697 502.482 240.73C502.482 326.763 432.43 396.759 346.321 396.759C260.213 396.759 190.16 326.763 190.16 240.73C190.16 154.697 260.217 84.7017 346.321 84.7017ZM346.321 394.906C431.402 394.906 500.62 325.745 500.62 240.735C500.62 155.725 431.402 86.5636 346.321 86.5636C261.241 86.5636 192.022 155.725 192.022 240.735C192.022 325.745 261.241 394.906 346.321 394.906Z" fill="url(#paint51_linear_54_1896)"/>
<path d="M346.322 90.7086C429.114 90.7086 496.471 158.008 496.471 240.734C496.471 323.46 429.114 390.76 346.322 390.76C263.529 390.76 196.173 323.46 196.173 240.734C196.173 158.008 263.529 90.7086 346.322 90.7086ZM346.322 388.898C428.086 388.898 494.609 322.432 494.609 240.734C494.609 159.037 428.086 92.5706 346.322 92.5706C264.553 92.5706 198.035 159.037 198.035 240.734C198.035 322.432 264.558 388.898 346.322 388.898Z" fill="url(#paint52_linear_54_1896)"/>
<path d="M346.32 96.7162C425.796 96.7162 490.457 161.32 490.457 240.735C490.457 320.149 425.796 384.753 346.32 384.753C266.844 384.753 202.183 320.149 202.183 240.735C202.183 161.32 266.844 96.7162 346.32 96.7162ZM346.32 382.891C424.773 382.891 488.595 319.121 488.595 240.735C488.595 162.348 424.768 98.5782 346.32 98.5782C267.868 98.5782 204.045 162.348 204.045 240.735C204.045 319.121 267.873 382.891 346.32 382.891Z" fill="url(#paint53_linear_54_1896)"/>
<path d="M346.321 102.723C422.485 102.723 484.445 164.636 484.445 240.734C484.445 316.832 422.485 378.745 346.321 378.745C270.157 378.745 208.196 316.832 208.196 240.734C208.196 164.632 270.161 102.723 346.321 102.723ZM346.321 376.883C421.457 376.883 482.583 315.804 482.583 240.734C482.583 165.66 421.457 104.585 346.321 104.585C271.185 104.585 210.058 165.665 210.058 240.734C210.058 315.804 271.185 376.883 346.321 376.883Z" fill="url(#paint54_linear_54_1896)"/>
<path d="M346.321 108.732C419.169 108.732 478.434 167.949 478.434 240.735C478.434 313.521 419.169 372.738 346.321 372.738C273.473 372.738 214.209 313.521 214.209 240.735C214.209 167.949 273.478 108.732 346.321 108.732ZM346.321 370.876C418.141 370.876 476.572 312.493 476.572 240.735C476.572 168.972 418.141 110.593 346.321 110.593C274.502 110.593 216.071 168.977 216.071 240.735C216.071 312.493 274.502 370.876 346.321 370.876Z" fill="url(#paint55_linear_54_1896)"/>
<path d="M346.32 114.74C415.851 114.74 472.42 171.261 472.42 240.736C472.42 310.21 415.851 366.731 346.32 366.731C276.788 366.731 220.22 310.21 220.22 240.736C220.22 171.261 276.788 114.74 346.32 114.74ZM346.32 364.87C414.828 364.87 470.558 309.182 470.558 240.731C470.558 172.28 414.823 116.597 346.32 116.597C277.812 116.597 222.082 172.284 222.082 240.731C222.082 309.182 277.817 364.87 346.32 364.87Z" fill="url(#paint56_linear_54_1896)"/>
<path d="M346.32 120.746C412.535 120.746 466.408 174.572 466.408 240.735C466.408 306.897 412.535 360.723 346.32 360.723C280.105 360.723 226.232 306.897 226.232 240.735C226.232 174.572 280.105 120.746 346.32 120.746ZM346.32 358.861C411.512 358.861 464.546 305.869 464.546 240.73C464.546 175.595 411.512 122.599 346.32 122.599C281.129 122.599 228.094 175.591 228.094 240.73C228.094 305.869 281.133 358.861 346.32 358.861Z" fill="url(#paint57_linear_54_1896)"/>
<path d="M346.321 126.753C409.224 126.753 460.396 177.883 460.396 240.734C460.396 303.585 409.224 354.715 346.321 354.715C283.418 354.715 232.245 303.585 232.245 240.734C232.245 177.883 283.422 126.753 346.321 126.753ZM346.321 352.853C408.196 352.853 458.535 302.557 458.535 240.73C458.535 178.902 408.196 128.606 346.321 128.606C284.446 128.606 234.107 178.902 234.107 240.73C234.107 302.557 284.446 352.853 346.321 352.853Z" fill="url(#paint58_linear_54_1896)"/>
<path d="M346.321 132.757C405.908 132.757 454.385 181.195 454.385 240.73C454.385 300.265 405.908 348.704 346.321 348.704C286.735 348.704 238.258 300.265 238.258 240.73C238.258 181.195 286.735 132.757 346.321 132.757ZM346.321 346.846C404.88 346.846 452.523 299.241 452.523 240.73C452.523 182.219 404.88 134.614 346.321 134.614C287.763 134.614 240.12 182.219 240.12 240.73C240.12 299.246 287.763 346.846 346.321 346.846Z" fill="url(#paint59_linear_54_1896)"/>
<path d="M346.322 138.764C402.592 138.764 448.373 184.507 448.373 240.73C448.373 296.953 402.592 342.696 346.322 342.696C290.051 342.696 244.27 296.953 244.27 240.73C244.27 184.507 290.051 138.764 346.322 138.764ZM346.322 340.839C401.569 340.839 446.511 295.93 446.511 240.73C446.511 185.531 401.564 140.621 346.322 140.621C291.075 140.621 246.132 185.531 246.132 240.73C246.132 295.93 291.08 340.839 346.322 340.839Z" fill="url(#paint60_linear_54_1896)"/>
<path d="M346.32 144.772C399.279 144.772 442.359 187.819 442.359 240.73C442.359 293.642 399.274 336.689 346.32 336.689C293.362 336.689 250.281 293.642 250.281 240.73C250.281 187.819 293.366 144.772 346.32 144.772ZM346.32 334.832C398.251 334.832 440.497 292.618 440.497 240.73C440.497 188.843 398.251 146.629 346.32 146.629C294.39 146.629 252.143 188.843 252.143 240.73C252.143 292.618 294.39 334.832 346.32 334.832Z" fill="url(#paint61_linear_54_1896)"/>
<path d="M346.321 150.779C395.963 150.779 436.348 191.131 436.348 240.73C436.348 290.33 395.963 330.681 346.321 330.681C296.679 330.681 256.294 290.33 256.294 240.73C256.294 191.131 296.683 150.779 346.321 150.779ZM346.321 328.829C394.935 328.829 434.486 289.311 434.486 240.735C434.486 192.159 394.935 152.641 346.321 152.641C297.707 152.641 258.156 192.159 258.156 240.735C258.156 289.311 297.707 328.829 346.321 328.829Z" fill="url(#paint62_linear_54_1896)"/>
<path d="M346.321 156.786C392.647 156.786 430.336 194.442 430.336 240.73C430.336 287.018 392.647 324.673 346.321 324.673C299.996 324.673 262.307 287.018 262.307 240.73C262.307 194.447 299.996 156.786 346.321 156.786ZM346.321 322.821C391.624 322.821 428.474 285.999 428.474 240.735C428.474 195.47 391.619 158.648 346.321 158.648C301.019 158.648 264.164 195.47 264.164 240.735C264.169 285.994 301.024 322.821 346.321 322.821Z" fill="url(#paint63_linear_54_1896)"/>
<path d="M346.32 162.794C389.329 162.794 424.322 197.759 424.322 240.73C424.322 283.702 389.329 318.671 346.32 318.671C303.311 318.671 268.317 283.706 268.317 240.73C268.317 197.754 303.311 162.794 346.32 162.794ZM346.32 316.814C388.306 316.814 422.46 282.683 422.46 240.735C422.46 198.787 388.301 164.656 346.32 164.656C304.334 164.656 270.175 198.787 270.175 240.735C270.175 282.683 304.339 316.814 346.32 316.814Z" fill="url(#paint64_linear_54_1896)"/>
<path d="M346.32 168.802C386.018 168.802 418.311 201.071 418.311 240.735C418.311 280.4 386.013 312.668 346.32 312.668C306.623 312.668 274.33 280.4 274.33 240.735C274.33 201.071 306.627 168.802 346.32 168.802ZM346.32 310.807C384.99 310.807 416.453 279.372 416.453 240.735C416.453 202.099 384.995 170.664 346.32 170.664C307.651 170.664 276.187 202.099 276.187 240.735C276.192 279.372 307.651 310.807 346.32 310.807Z" fill="url(#paint65_linear_54_1896)"/>
<path d="M346.321 174.809C382.702 174.809 412.299 204.382 412.299 240.735C412.299 277.088 382.702 306.661 346.321 306.661C309.94 306.661 280.343 277.088 280.343 240.735C280.343 204.382 309.944 174.809 346.321 174.809ZM346.321 304.799C381.674 304.799 410.437 276.06 410.437 240.735C410.437 205.411 381.674 176.671 346.321 176.671C310.968 176.671 282.2 205.411 282.2 240.735C282.205 276.06 310.968 304.799 346.321 304.799Z" fill="url(#paint66_linear_54_1896)"/>
<path d="M346.321 180.816C379.386 180.816 406.287 207.694 406.287 240.735C406.287 273.771 379.386 300.653 346.321 300.653C313.257 300.653 286.356 273.776 286.356 240.735C286.356 207.694 313.257 180.816 346.321 180.816ZM346.321 298.791C378.363 298.791 404.43 272.748 404.43 240.735C404.43 208.722 378.363 182.678 346.321 182.678C314.28 182.678 288.213 208.722 288.213 240.735C288.217 272.748 314.285 298.791 346.321 298.791Z" fill="url(#paint67_linear_54_1896)"/>
<path d="M346.322 186.824C376.075 186.824 400.275 211.01 400.275 240.735C400.275 270.46 376.07 294.646 346.322 294.646C316.569 294.646 292.368 270.46 292.368 240.735C292.368 211.01 316.573 186.824 346.322 186.824ZM346.322 292.784C375.047 292.784 398.418 269.436 398.418 240.735C398.418 212.034 375.047 188.686 346.322 188.686C317.597 188.686 294.225 212.034 294.225 240.735C294.23 269.436 317.597 292.784 346.322 292.784Z" fill="url(#paint68_linear_54_1896)"/>
<path d="M346.32 192.832C372.757 192.832 394.262 214.322 394.262 240.735C394.262 267.148 372.757 288.639 346.32 288.639C319.884 288.639 298.379 267.148 298.379 240.735C298.379 214.317 319.888 192.832 346.32 192.832ZM346.32 286.777C371.729 286.777 392.404 266.12 392.404 240.735C392.404 215.35 371.734 194.694 346.32 194.694C320.912 194.694 300.236 215.35 300.236 240.735C300.236 266.12 320.912 286.777 346.32 286.777Z" fill="url(#paint69_linear_54_1896)"/>
<path d="M346.321 198.838C369.441 198.838 388.25 217.633 388.25 240.734C388.25 263.836 369.441 282.63 346.321 282.63C323.201 282.63 304.392 263.836 304.392 240.734C304.392 217.633 323.201 198.838 346.321 198.838ZM346.321 280.768C368.418 280.768 386.393 262.808 386.393 240.73C386.393 218.652 368.418 200.691 346.321 200.691C324.224 200.691 306.249 218.652 306.249 240.73C306.254 262.808 324.229 280.768 346.321 280.768Z" fill="url(#paint70_linear_54_1896)"/>
<path d="M346.321 204.846C366.125 204.846 382.238 220.945 382.238 240.735C382.238 260.524 366.125 276.623 346.321 276.623C326.518 276.623 310.404 260.524 310.404 240.735C310.404 220.945 326.518 204.846 346.321 204.846ZM346.321 274.761C365.102 274.761 380.381 259.496 380.381 240.73C380.381 221.964 365.102 206.698 346.321 206.698C327.541 206.698 312.262 221.964 312.262 240.73C312.266 259.496 327.546 274.761 346.321 274.761Z" fill="url(#paint71_linear_54_1896)"/>
<path d="M346.32 210.849C362.812 210.849 376.225 224.252 376.225 240.73C376.225 257.208 362.807 270.611 346.32 270.611C329.828 270.611 316.415 257.208 316.415 240.73C316.415 224.252 329.832 210.849 346.32 210.849ZM346.32 268.754C361.784 268.754 374.367 256.185 374.367 240.73C374.367 225.276 361.784 212.706 346.32 212.706C330.856 212.706 318.272 225.276 318.272 240.73C318.272 256.185 330.856 268.754 346.32 268.754Z" fill="url(#paint72_linear_54_1896)"/>
<path d="M346.32 216.856C359.496 216.856 370.213 227.568 370.213 240.73C370.213 253.896 359.496 264.604 346.32 264.604C333.145 264.604 322.428 253.891 322.428 240.73C322.428 227.568 333.149 216.856 346.32 216.856ZM346.32 262.746C358.468 262.746 368.356 252.868 368.356 240.73C368.356 228.592 358.473 218.714 346.32 218.714C334.173 218.714 324.285 228.592 324.285 240.73C324.29 252.873 334.173 262.746 346.32 262.746Z" fill="url(#paint73_linear_54_1896)"/>
<circle opacity="0.5" cx="578.026" cy="181.347" r="12.1112" transform="rotate(-180 578.026 181.347)" fill="#2F2F2F"/>
<circle cx="159.818" cy="393.427" r="10.6112" transform="rotate(-180 159.818 393.427)" fill="#96F4A8" stroke="#96F4A8" stroke-width="3"/>
<circle cx="431.963" cy="17.2672" r="10.6112" transform="rotate(-180 431.963 17.2672)" fill="#96F4A8" stroke="#96F4A8" stroke-width="3"/>
</g>
<defs>
<linearGradient id="paint0_linear_54_1896" x1="281.866" y1="364.474" x2="621.439" y2="704.059" gradientUnits="userSpaceOnUse">
<stop stop-color="#2758FF" stop-opacity="0"/>
<stop offset="1" stop-color="#2758FF"/>
</linearGradient>
<linearGradient id="paint1_linear_54_1896" x1="286.114" y1="368.717" x2="617.195" y2="699.81" gradientUnits="userSpaceOnUse">
<stop stop-color="#2758FF" stop-opacity="0"/>
<stop offset="1" stop-color="#2758FF"/>
</linearGradient>
<linearGradient id="paint2_linear_54_1896" x1="290.362" y1="372.972" x2="612.941" y2="695.571" gradientUnits="userSpaceOnUse">
<stop stop-color="#2758FF" stop-opacity="0"/>
<stop offset="1" stop-color="#2758FF"/>
</linearGradient>
<linearGradient id="paint3_linear_54_1896" x1="294.614" y1="377.212" x2="608.704" y2="691.308" gradientUnits="userSpaceOnUse">
<stop stop-color="#2758FF" stop-opacity="0"/>
<stop offset="1" stop-color="#2758FF"/>
</linearGradient>
<linearGradient id="paint4_linear_54_1896" x1="298.859" y1="381.459" x2="604.453" y2="687.067" gradientUnits="userSpaceOnUse">
<stop stop-color="#2758FF" stop-opacity="0"/>
<stop offset="1" stop-color="#2758FF"/>
</linearGradient>
<linearGradient id="paint5_linear_54_1896" x1="303.106" y1="385.706" x2="600.206" y2="682.819" gradientUnits="userSpaceOnUse">
<stop stop-color="#2758FF" stop-opacity="0"/>
<stop offset="1" stop-color="#2758FF"/>
</linearGradient>
<linearGradient id="paint6_linear_54_1896" x1="307.356" y1="389.953" x2="595.96" y2="678.564" gradientUnits="userSpaceOnUse">
<stop stop-color="#2758FF" stop-opacity="0"/>
<stop offset="1" stop-color="#2758FF"/>
</linearGradient>
<linearGradient id="paint7_linear_54_1896" x1="311.601" y1="394.202" x2="591.71" y2="674.324" gradientUnits="userSpaceOnUse">
<stop stop-color="#2758FF" stop-opacity="0"/>
<stop offset="1" stop-color="#2758FF"/>
</linearGradient>
<linearGradient id="paint8_linear_54_1896" x1="315.85" y1="398.449" x2="587.464" y2="670.076" gradientUnits="userSpaceOnUse">
<stop stop-color="#2758FF" stop-opacity="0"/>
<stop offset="1" stop-color="#2758FF"/>
</linearGradient>
<linearGradient id="paint9_linear_54_1896" x1="320.097" y1="402.701" x2="583.216" y2="665.832" gradientUnits="userSpaceOnUse">
<stop stop-color="#2758FF" stop-opacity="0"/>
<stop offset="1" stop-color="#2758FF"/>
</linearGradient>
<linearGradient id="paint10_linear_54_1896" x1="324.345" y1="406.948" x2="578.968" y2="661.585" gradientUnits="userSpaceOnUse">
<stop stop-color="#2758FF" stop-opacity="0"/>
<stop offset="1" stop-color="#2758FF"/>
</linearGradient>
<linearGradient id="paint11_linear_54_1896" x1="328.594" y1="411.196" x2="574.722" y2="657.337" gradientUnits="userSpaceOnUse">
<stop stop-color="#2758FF" stop-opacity="0"/>
<stop offset="1" stop-color="#2758FF"/>
</linearGradient>
<linearGradient id="paint12_linear_54_1896" x1="332.842" y1="415.443" x2="570.474" y2="653.089" gradientUnits="userSpaceOnUse">
<stop stop-color="#2758FF" stop-opacity="0"/>
<stop offset="1" stop-color="#2758FF"/>
</linearGradient>
<linearGradient id="paint13_linear_54_1896" x1="337.089" y1="419.691" x2="566.227" y2="648.842" gradientUnits="userSpaceOnUse">
<stop stop-color="#2758FF" stop-opacity="0"/>
<stop offset="1" stop-color="#2758FF"/>
</linearGradient>
<linearGradient id="paint14_linear_54_1896" x1="341.336" y1="423.938" x2="561.979" y2="644.594" gradientUnits="userSpaceOnUse">
<stop stop-color="#2758FF" stop-opacity="0"/>
<stop offset="1" stop-color="#2758FF"/>
</linearGradient>
<linearGradient id="paint15_linear_54_1896" x1="345.584" y1="428.178" x2="557.737" y2="640.338" gradientUnits="userSpaceOnUse">
<stop stop-color="#2758FF" stop-opacity="0"/>
<stop offset="1" stop-color="#2758FF"/>
</linearGradient>
<linearGradient id="paint16_linear_54_1896" x1="349.833" y1="432.425" x2="553.492" y2="636.09" gradientUnits="userSpaceOnUse">
<stop stop-color="#2758FF" stop-opacity="0"/>
<stop offset="1" stop-color="#2758FF"/>
</linearGradient>
<linearGradient id="paint17_linear_54_1896" x1="354.081" y1="436.672" x2="549.244" y2="631.841" gradientUnits="userSpaceOnUse">
<stop stop-color="#2758FF" stop-opacity="0"/>
<stop offset="1" stop-color="#2758FF"/>
</linearGradient>
<linearGradient id="paint18_linear_54_1896" x1="358.328" y1="440.919" x2="544.996" y2="627.594" gradientUnits="userSpaceOnUse">
<stop stop-color="#2758FF" stop-opacity="0"/>
<stop offset="1" stop-color="#2758FF"/>
</linearGradient>
<linearGradient id="paint19_linear_54_1896" x1="362.577" y1="445.166" x2="540.75" y2="623.345" gradientUnits="userSpaceOnUse">
<stop stop-color="#2758FF" stop-opacity="0"/>
<stop offset="1" stop-color="#2758FF"/>
</linearGradient>
<linearGradient id="paint20_linear_54_1896" x1="366.823" y1="449.414" x2="536.5" y2="619.098" gradientUnits="userSpaceOnUse">
<stop stop-color="#2758FF" stop-opacity="0"/>
<stop offset="1" stop-color="#2758FF"/>
</linearGradient>
<linearGradient id="paint21_linear_54_1896" x1="371.072" y1="453.662" x2="532.254" y2="614.851" gradientUnits="userSpaceOnUse">
<stop stop-color="#2758FF" stop-opacity="0"/>
<stop offset="1" stop-color="#2758FF"/>
</linearGradient>
<linearGradient id="paint22_linear_54_1896" x1="375.319" y1="457.914" x2="528.006" y2="610.607" gradientUnits="userSpaceOnUse">
<stop stop-color="#2758FF" stop-opacity="0"/>
<stop offset="1" stop-color="#2758FF"/>
</linearGradient>
<linearGradient id="paint23_linear_54_1896" x1="379.567" y1="462.161" x2="523.758" y2="606.359" gradientUnits="userSpaceOnUse">
<stop stop-color="#2758FF" stop-opacity="0"/>
<stop offset="1" stop-color="#2758FF"/>
</linearGradient>
<linearGradient id="paint24_linear_54_1896" x1="383.816" y1="466.408" x2="519.513" y2="602.111" gradientUnits="userSpaceOnUse">
<stop stop-color="#2758FF" stop-opacity="0"/>
<stop offset="1" stop-color="#2758FF"/>
</linearGradient>
<linearGradient id="paint25_linear_54_1896" x1="388.064" y1="470.656" x2="515.265" y2="597.864" gradientUnits="userSpaceOnUse">
<stop stop-color="#2758FF" stop-opacity="0"/>
<stop offset="1" stop-color="#2758FF"/>
</linearGradient>
<linearGradient id="paint26_linear_54_1896" x1="392.311" y1="474.904" x2="511.017" y2="593.616" gradientUnits="userSpaceOnUse">
<stop stop-color="#2758FF" stop-opacity="0"/>
<stop offset="1" stop-color="#2758FF"/>
</linearGradient>
<linearGradient id="paint27_linear_54_1896" x1="396.56" y1="479.147" x2="506.774" y2="589.364" gradientUnits="userSpaceOnUse">
<stop stop-color="#2758FF" stop-opacity="0"/>
<stop offset="1" stop-color="#2758FF"/>
</linearGradient>
<linearGradient id="paint28_linear_54_1896" x1="400.808" y1="483.389" x2="502.53" y2="585.111" gradientUnits="userSpaceOnUse">
<stop stop-color="#2758FF" stop-opacity="0"/>
<stop offset="1" stop-color="#2758FF"/>
</linearGradient>
<linearGradient id="paint29_linear_54_1896" x1="405.055" y1="487.638" x2="498.282" y2="580.865" gradientUnits="userSpaceOnUse">
<stop stop-color="#2758FF" stop-opacity="0"/>
<stop offset="1" stop-color="#2758FF"/>
</linearGradient>
<linearGradient id="paint30_linear_54_1896" x1="409.302" y1="491.885" x2="494.034" y2="576.616" gradientUnits="userSpaceOnUse">
<stop stop-color="#2758FF" stop-opacity="0"/>
<stop offset="1" stop-color="#2758FF"/>
</linearGradient>
<linearGradient id="paint31_linear_54_1896" x1="413.55" y1="496.132" x2="489.786" y2="572.368" gradientUnits="userSpaceOnUse">
<stop stop-color="#2758FF" stop-opacity="0"/>
<stop offset="1" stop-color="#2758FF"/>
</linearGradient>
<linearGradient id="paint32_linear_54_1896" x1="417.799" y1="500.379" x2="485.54" y2="568.12" gradientUnits="userSpaceOnUse">
<stop stop-color="#2758FF" stop-opacity="0"/>
<stop offset="1" stop-color="#2758FF"/>
</linearGradient>
<linearGradient id="paint33_linear_54_1896" x1="422.047" y1="504.628" x2="481.292" y2="563.873" gradientUnits="userSpaceOnUse">
<stop stop-color="#2758FF" stop-opacity="0"/>
<stop offset="1" stop-color="#2758FF"/>
</linearGradient>
<linearGradient id="paint34_linear_54_1896" x1="426.294" y1="508.875" x2="477.044" y2="559.625" gradientUnits="userSpaceOnUse">
<stop stop-color="#2758FF" stop-opacity="0"/>
<stop offset="1" stop-color="#2758FF"/>
</linearGradient>
<linearGradient id="paint35_linear_54_1896" x1="430.541" y1="513.127" x2="472.797" y2="555.382" gradientUnits="userSpaceOnUse">
<stop stop-color="#2758FF" stop-opacity="0"/>
<stop offset="1" stop-color="#2758FF"/>
</linearGradient>
<linearGradient id="paint36_linear_54_1896" x1="434.791" y1="517.374" x2="468.551" y2="551.134" gradientUnits="userSpaceOnUse">
<stop stop-color="#2758FF" stop-opacity="0"/>
<stop offset="1" stop-color="#2758FF"/>
</linearGradient>
<linearGradient id="paint37_linear_54_1896" x1="516.126" y1="410.51" x2="176.553" y2="70.9244" gradientUnits="userSpaceOnUse">
<stop stop-color="#96F4A8" stop-opacity="0"/>
<stop offset="0.9999" stop-color="#96F4A8"/>
<stop offset="1" stop-color="#2758FF"/>
<stop offset="1" stop-color="#96F4A8"/>
</linearGradient>
<linearGradient id="paint38_linear_54_1896" x1="511.878" y1="406.267" x2="180.797" y2="75.1732" gradientUnits="userSpaceOnUse">
<stop stop-color="#96F4A8" stop-opacity="0"/>
<stop offset="0.9999" stop-color="#96F4A8"/>
<stop offset="1" stop-color="#2758FF"/>
<stop offset="1" stop-color="#96F4A8"/>
</linearGradient>
<linearGradient id="paint39_linear_54_1896" x1="507.63" y1="402.011" x2="185.052" y2="79.4123" gradientUnits="userSpaceOnUse">
<stop stop-color="#96F4A8" stop-opacity="0"/>
<stop offset="0.9999" stop-color="#96F4A8"/>
<stop offset="1" stop-color="#2758FF"/>
<stop offset="1" stop-color="#96F4A8"/>
</linearGradient>
<linearGradient id="paint40_linear_54_1896" x1="503.379" y1="397.771" x2="189.288" y2="83.6749" gradientUnits="userSpaceOnUse">
<stop stop-color="#96F4A8" stop-opacity="0"/>
<stop offset="0.9999" stop-color="#96F4A8"/>
<stop offset="1" stop-color="#2758FF"/>
<stop offset="1" stop-color="#96F4A8"/>
</linearGradient>
<linearGradient id="paint41_linear_54_1896" x1="499.134" y1="393.524" x2="193.539" y2="87.9162" gradientUnits="userSpaceOnUse">
<stop stop-color="#96F4A8" stop-opacity="0"/>
<stop offset="0.9999" stop-color="#96F4A8"/>
<stop offset="1" stop-color="#2758FF"/>
<stop offset="1" stop-color="#96F4A8"/>
</linearGradient>
<linearGradient id="paint42_linear_54_1896" x1="494.884" y1="389.277" x2="197.785" y2="92.1647" gradientUnits="userSpaceOnUse">
<stop stop-color="#96F4A8" stop-opacity="0"/>
<stop offset="0.9999" stop-color="#96F4A8"/>
<stop offset="1" stop-color="#2758FF"/>
<stop offset="1" stop-color="#96F4A8"/>
</linearGradient>
<linearGradient id="paint43_linear_54_1896" x1="490.634" y1="385.03" x2="202.03" y2="96.4194" gradientUnits="userSpaceOnUse">
<stop stop-color="#96F4A8" stop-opacity="0"/>
<stop offset="0.9999" stop-color="#96F4A8"/>
<stop offset="1" stop-color="#2758FF"/>
<stop offset="1" stop-color="#96F4A8"/>
</linearGradient>
<linearGradient id="paint44_linear_54_1896" x1="486.389" y1="380.782" x2="206.28" y2="100.66" gradientUnits="userSpaceOnUse">
<stop stop-color="#96F4A8" stop-opacity="0"/>
<stop offset="0.9999" stop-color="#96F4A8"/>
<stop offset="1" stop-color="#2758FF"/>
<stop offset="1" stop-color="#96F4A8"/>
</linearGradient>
<linearGradient id="paint45_linear_54_1896" x1="482.142" y1="376.534" x2="210.528" y2="104.908" gradientUnits="userSpaceOnUse">
<stop stop-color="#96F4A8" stop-opacity="0"/>
<stop offset="0.9999" stop-color="#96F4A8"/>
<stop offset="1" stop-color="#2758FF"/>
<stop offset="1" stop-color="#96F4A8"/>
</linearGradient>
<linearGradient id="paint46_linear_54_1896" x1="477.895" y1="372.283" x2="214.776" y2="109.151" gradientUnits="userSpaceOnUse">
<stop stop-color="#96F4A8" stop-opacity="0"/>
<stop offset="0.9999" stop-color="#96F4A8"/>
<stop offset="1" stop-color="#2758FF"/>
<stop offset="1" stop-color="#96F4A8"/>
</linearGradient>
<linearGradient id="paint47_linear_54_1896" x1="473.647" y1="368.035" x2="219.024" y2="113.399" gradientUnits="userSpaceOnUse">
<stop stop-color="#96F4A8" stop-opacity="0"/>
<stop offset="0.9999" stop-color="#96F4A8"/>
<stop offset="1" stop-color="#2758FF"/>
<stop offset="1" stop-color="#96F4A8"/>
</linearGradient>
<linearGradient id="paint48_linear_54_1896" x1="469.398" y1="363.788" x2="223.27" y2="117.647" gradientUnits="userSpaceOnUse">
<stop stop-color="#96F4A8" stop-opacity="0"/>
<stop offset="0.9999" stop-color="#96F4A8"/>
<stop offset="1" stop-color="#2758FF"/>
<stop offset="1" stop-color="#96F4A8"/>
</linearGradient>
<linearGradient id="paint49_linear_54_1896" x1="465.151" y1="359.541" x2="227.518" y2="121.895" gradientUnits="userSpaceOnUse">
<stop stop-color="#96F4A8" stop-opacity="0"/>
<stop offset="0.9999" stop-color="#96F4A8"/>
<stop offset="1" stop-color="#2758FF"/>
<stop offset="1" stop-color="#96F4A8"/>
</linearGradient>
<linearGradient id="paint50_linear_54_1896" x1="460.903" y1="355.292" x2="231.766" y2="126.142" gradientUnits="userSpaceOnUse">
<stop stop-color="#96F4A8" stop-opacity="0"/>
<stop offset="0.9999" stop-color="#96F4A8"/>
<stop offset="1" stop-color="#2758FF"/>
<stop offset="1" stop-color="#96F4A8"/>
</linearGradient>
<linearGradient id="paint51_linear_54_1896" x1="456.656" y1="351.046" x2="236.014" y2="130.39" gradientUnits="userSpaceOnUse">
<stop stop-color="#96F4A8" stop-opacity="0"/>
<stop offset="0.9999" stop-color="#96F4A8"/>
<stop offset="1" stop-color="#2758FF"/>
<stop offset="1" stop-color="#96F4A8"/>
</linearGradient>
<linearGradient id="paint52_linear_54_1896" x1="452.408" y1="346.806" x2="240.255" y2="134.646" gradientUnits="userSpaceOnUse">
<stop stop-color="#96F4A8" stop-opacity="0"/>
<stop offset="0.9999" stop-color="#96F4A8"/>
<stop offset="1" stop-color="#2758FF"/>
<stop offset="1" stop-color="#96F4A8"/>
</linearGradient>
<linearGradient id="paint53_linear_54_1896" x1="448.159" y1="342.558" x2="244.501" y2="138.894" gradientUnits="userSpaceOnUse">
<stop stop-color="#96F4A8" stop-opacity="0"/>
<stop offset="0.9999" stop-color="#96F4A8"/>
<stop offset="1" stop-color="#2758FF"/>
<stop offset="1" stop-color="#96F4A8"/>
</linearGradient>
<linearGradient id="paint54_linear_54_1896" x1="443.912" y1="338.311" x2="248.748" y2="143.141" gradientUnits="userSpaceOnUse">
<stop stop-color="#96F4A8" stop-opacity="0"/>
<stop offset="0.9999" stop-color="#96F4A8"/>
<stop offset="1" stop-color="#2758FF"/>
<stop offset="1" stop-color="#96F4A8"/>
</linearGradient>
<linearGradient id="paint55_linear_54_1896" x1="439.664" y1="334.064" x2="252.996" y2="147.39" gradientUnits="userSpaceOnUse">
<stop stop-color="#96F4A8" stop-opacity="0"/>
<stop offset="0.9999" stop-color="#96F4A8"/>
<stop offset="1" stop-color="#2758FF"/>
<stop offset="1" stop-color="#96F4A8"/>
</linearGradient>
<linearGradient id="paint56_linear_54_1896" x1="435.415" y1="329.817" x2="257.242" y2="151.638" gradientUnits="userSpaceOnUse">
<stop stop-color="#96F4A8" stop-opacity="0"/>
<stop offset="0.9999" stop-color="#96F4A8"/>
<stop offset="1" stop-color="#2758FF"/>
<stop offset="1" stop-color="#96F4A8"/>
</linearGradient>
<linearGradient id="paint57_linear_54_1896" x1="431.168" y1="325.569" x2="261.49" y2="155.885" gradientUnits="userSpaceOnUse">
<stop stop-color="#96F4A8" stop-opacity="0"/>
<stop offset="0.9999" stop-color="#96F4A8"/>
<stop offset="1" stop-color="#2758FF"/>
<stop offset="1" stop-color="#96F4A8"/>
</linearGradient>
<linearGradient id="paint58_linear_54_1896" x1="426.92" y1="321.321" x2="265.738" y2="160.133" gradientUnits="userSpaceOnUse">
<stop stop-color="#96F4A8" stop-opacity="0"/>
<stop offset="0.9999" stop-color="#96F4A8"/>
<stop offset="1" stop-color="#2758FF"/>
<stop offset="1" stop-color="#96F4A8"/>
</linearGradient>
<linearGradient id="paint59_linear_54_1896" x1="422.673" y1="317.07" x2="269.986" y2="164.376" gradientUnits="userSpaceOnUse">
<stop stop-color="#96F4A8" stop-opacity="0"/>
<stop offset="0.9999" stop-color="#96F4A8"/>
<stop offset="1" stop-color="#2758FF"/>
<stop offset="1" stop-color="#96F4A8"/>
</linearGradient>
<linearGradient id="paint60_linear_54_1896" x1="418.425" y1="312.822" x2="274.234" y2="168.624" gradientUnits="userSpaceOnUse">
<stop stop-color="#96F4A8" stop-opacity="0"/>
<stop offset="0.9999" stop-color="#96F4A8"/>
<stop offset="1" stop-color="#2758FF"/>
<stop offset="1" stop-color="#96F4A8"/>
</linearGradient>
<linearGradient id="paint61_linear_54_1896" x1="414.176" y1="308.575" x2="278.48" y2="172.872" gradientUnits="userSpaceOnUse">
<stop stop-color="#96F4A8" stop-opacity="0"/>
<stop offset="0.9999" stop-color="#96F4A8"/>
<stop offset="1" stop-color="#2758FF"/>
<stop offset="1" stop-color="#96F4A8"/>
</linearGradient>
<linearGradient id="paint62_linear_54_1896" x1="409.929" y1="304.327" x2="282.728" y2="177.12" gradientUnits="userSpaceOnUse">
<stop stop-color="#96F4A8" stop-opacity="0"/>
<stop offset="0.9999" stop-color="#96F4A8"/>
<stop offset="1" stop-color="#2758FF"/>
<stop offset="1" stop-color="#96F4A8"/>
</linearGradient>
<linearGradient id="paint63_linear_54_1896" x1="405.681" y1="300.08" x2="286.975" y2="181.367" gradientUnits="userSpaceOnUse">
<stop stop-color="#96F4A8" stop-opacity="0"/>
<stop offset="0.9999" stop-color="#96F4A8"/>
<stop offset="1" stop-color="#2758FF"/>
<stop offset="1" stop-color="#96F4A8"/>
</linearGradient>
<linearGradient id="paint64_linear_54_1896" x1="401.432" y1="295.836" x2="291.218" y2="185.619" gradientUnits="userSpaceOnUse">
<stop stop-color="#96F4A8" stop-opacity="0"/>
<stop offset="0.9999" stop-color="#96F4A8"/>
<stop offset="1" stop-color="#2758FF"/>
<stop offset="1" stop-color="#96F4A8"/>
</linearGradient>
<linearGradient id="paint65_linear_54_1896" x1="397.185" y1="291.593" x2="295.462" y2="189.871" gradientUnits="userSpaceOnUse">
<stop stop-color="#96F4A8" stop-opacity="0"/>
<stop offset="0.9999" stop-color="#96F4A8"/>
<stop offset="1" stop-color="#2758FF"/>
<stop offset="1" stop-color="#96F4A8"/>
</linearGradient>
<linearGradient id="paint66_linear_54_1896" x1="392.937" y1="287.346" x2="299.71" y2="194.119" gradientUnits="userSpaceOnUse">
<stop stop-color="#96F4A8" stop-opacity="0"/>
<stop offset="0.9999" stop-color="#96F4A8"/>
<stop offset="1" stop-color="#2758FF"/>
<stop offset="1" stop-color="#96F4A8"/>
</linearGradient>
<linearGradient id="paint67_linear_54_1896" x1="388.69" y1="283.098" x2="303.958" y2="198.367" gradientUnits="userSpaceOnUse">
<stop stop-color="#96F4A8" stop-opacity="0"/>
<stop offset="0.9999" stop-color="#96F4A8"/>
<stop offset="1" stop-color="#2758FF"/>
<stop offset="1" stop-color="#96F4A8"/>
</linearGradient>
<linearGradient id="paint68_linear_54_1896" x1="384.442" y1="278.851" x2="308.206" y2="202.615" gradientUnits="userSpaceOnUse">
<stop stop-color="#96F4A8" stop-opacity="0"/>
<stop offset="0.9999" stop-color="#96F4A8"/>
<stop offset="1" stop-color="#2758FF"/>
<stop offset="1" stop-color="#96F4A8"/>
</linearGradient>
<linearGradient id="paint69_linear_54_1896" x1="380.193" y1="274.604" x2="312.452" y2="206.863" gradientUnits="userSpaceOnUse">
<stop stop-color="#96F4A8" stop-opacity="0"/>
<stop offset="0.9999" stop-color="#96F4A8"/>
<stop offset="1" stop-color="#2758FF"/>
<stop offset="1" stop-color="#96F4A8"/>
</linearGradient>
<linearGradient id="paint70_linear_54_1896" x1="375.946" y1="270.356" x2="316.7" y2="211.11" gradientUnits="userSpaceOnUse">
<stop stop-color="#96F4A8" stop-opacity="0"/>
<stop offset="0.9999" stop-color="#96F4A8"/>
<stop offset="1" stop-color="#2758FF"/>
<stop offset="1" stop-color="#96F4A8"/>
</linearGradient>
<linearGradient id="paint71_linear_54_1896" x1="371.698" y1="266.108" x2="320.948" y2="215.358" gradientUnits="userSpaceOnUse">
<stop stop-color="#96F4A8" stop-opacity="0"/>
<stop offset="0.9999" stop-color="#96F4A8"/>
<stop offset="1" stop-color="#2758FF"/>
<stop offset="1" stop-color="#96F4A8"/>
</linearGradient>
<linearGradient id="paint72_linear_54_1896" x1="367.449" y1="261.857" x2="325.194" y2="219.602" gradientUnits="userSpaceOnUse">
<stop stop-color="#96F4A8" stop-opacity="0"/>
<stop offset="0.9999" stop-color="#96F4A8"/>
<stop offset="1" stop-color="#2758FF"/>
<stop offset="1" stop-color="#96F4A8"/>
</linearGradient>
<linearGradient id="paint73_linear_54_1896" x1="363.201" y1="257.609" x2="329.442" y2="223.849" gradientUnits="userSpaceOnUse">
<stop stop-color="#96F4A8" stop-opacity="0"/>
<stop offset="0.9999" stop-color="#96F4A8"/>
<stop offset="1" stop-color="#2758FF"/>
<stop offset="1" stop-color="#96F4A8"/>
</linearGradient>
</defs>
</svg>
